<svg width="24" height="24" viewBox="0 0 24 24" xmlns="http://www.w3.org/2000/svg"><path fill="currentColor" d="M12 19c1.1 0 2.042-.392 2.825-1.175C15.608 17.042 16 16.1 16 15v-4c0-1.1-.392-2.042-1.175-2.825C14.042 7.392 13.1 7 12 7s-2.042.392-2.825 1.175C8.392 8.958 8 9.9 8 11v4c0 1.1.392 2.042 1.175 2.825C9.958 18.608 10.9 19 12 19Zm-2-3h4v-2h-4v2Zm0-4h4v-2h-4v2Zm2 9a5.928 5.928 0 0 1-3.012-.8A5.836 5.836 0 0 1 6.8 18H4v-2h2.1a8.1 8.1 0 0 1-.087-1A40.027 40.027 0 0 1 6 14H4v-2h2c0-.333.004-.667.013-1a8.1 8.1 0 0 1 .087-1H4V8h2.8a7.74 7.74 0 0 1 .788-1.075A4.875 4.875 0 0 1 8.6 6.05L7 4.4 8.4 3l2.15 2.15a4.63 4.63 0 0 1 2.85 0L15.6 3 17 4.4l-1.65 1.65A5.765 5.765 0 0 1 17.2 8H20v2h-2.1c.05.333.08.667.088 1 .008.333.012.667.012 1h2v2h-2c0 .333-.004.667-.012 1a8.093 8.093 0 0 1-.088 1H20v2h-2.8a5.836 5.836 0 0 1-2.188 2.2A5.93 5.93 0 0 1 12 21Z"/></svg> 