<svg width="24" height="24" viewBox="0 0 24 24" fill="none" xmlns="http://www.w3.org/2000/svg">
<rect x="15.0735" y="7.33334" width="3.08824" height="5.6" fill="white"/>
<rect x="10.9559" y="7.33334" width="3.08824" height="5.6" fill="white"/>
<rect x="6.83824" y="7.33334" width="3.08824" height="5.6" fill="white"/>
<path fill-rule="evenodd" clip-rule="evenodd" d="M3.75 7C3.75 5.89543 4.64543 5 5.75 5H19.25C20.3546 5 21.25 5.89543 21.25 7V17C21.25 18.1046 20.3546 19 19.25 19H13.865C13.7617 18.339 13.1899 17.8333 12.5 17.8333C11.8101 17.8333 11.2383 18.339 11.135 19H5.75C4.64543 19 3.75 18.1046 3.75 17V7ZM4.77941 7.16667C4.77941 6.61438 5.22713 6.16667 5.77941 6.16667H19.2206C19.7729 6.16667 20.2206 6.61438 20.2206 7.16667V14.3333H4.77941V7.16667Z" fill="white"/>
</svg>
