<svg width="24" height="24" viewBox="0 0 24 24" xmlns="http://www.w3.org/2000/svg"><path fill="currentColor" d="M8 17.75c-1.783-.45-3.23-1.396-4.338-2.838C2.554 13.471 2 11.833 2 10c0-2.233.775-4.125 2.325-5.675C5.875 2.775 7.767 2 10 2c1.833 0 3.47.554 4.912 1.663C16.354 4.77 17.3 6.216 17.75 8h-2.1a5.98 5.98 0 0 0-2.188-2.9A5.807 5.807 0 0 0 10 4c-1.667 0-3.083.583-4.25 1.75C4.583 6.917 4 8.333 4 10c0 1.283.367 2.438 1.1 3.463A5.98 5.98 0 0 0 8 15.65v2.1ZM12 22c-.55 0-1.02-.196-1.412-.587A1.926 1.926 0 0 1 10 20v-8c0-.55.196-1.02.588-1.412A1.926 1.926 0 0 1 12 10h8c.55 0 1.02.196 1.413.588.391.391.587.862.587 1.412v8c0 .55-.196 1.02-.587 1.413A1.926 1.926 0 0 1 20 22h-8Zm0-2h8v-8h-8v8Zm.5-1h7l-2.3-3-1.7 2.25-1.2-1.65-1.8 2.4Z"/></svg> 