<svg width="24" height="24" viewBox="0 0 24 24" xmlns="http://www.w3.org/2000/svg"><path fill="currentColor" d="M8 20c-.55 0-1.02-.196-1.412-.587A1.926 1.926 0 0 1 6 18v-3h3v-2.25a4.896 4.896 0 0 1-1.662-.387A4.395 4.395 0 0 1 5.9 11.35v-1.1H4.75L1.5 7a4.869 4.869 0 0 1 2.225-1.625A7.876 7.876 0 0 1 6.4 4.9c.45 0 .887.033 1.313.1A5.52 5.52 0 0 1 9 5.375V4h12v13c0 .833-.292 1.542-.875 2.125A2.893 2.893 0 0 1 18 20H8Zm3-5h6v2c0 .283.096.52.288.712.191.192.429.288.712.288s.52-.096.712-.288A.968.968 0 0 0 19 17V6h-8v.6l6 6V14h-1.4l-2.85-2.85-.2.2c-.233.233-.48.442-.738.625s-.529.325-.812.425V15ZM5.6 8.25h2.3v2.15c.2.133.408.225.625.275.217.05.442.075.675.075.383 0 .73-.058 1.038-.175.308-.117.612-.325.912-.625l.2-.2-1.4-1.4a4.845 4.845 0 0 0-1.625-1.087A5.103 5.103 0 0 0 6.4 6.9c-.333 0-.65.025-.95.075-.3.05-.6.125-.9.225L5.6 8.25ZM15 17H8v1h7.15a2.824 2.824 0 0 1-.113-.475A3.539 3.539 0 0 1 15 17Z"/></svg> 