<svg width="24" height="24" viewBox="0 0 24 24" xmlns="http://www.w3.org/2000/svg"><path fill="currentColor" fill-rule="evenodd" d="M17.154 6.559a.375.375 0 0 1-.265-.46l.488-1.821a.375.375 0 1 1 .724.194l-.488 1.822a.375.375 0 0 1-.46.265Zm-3.429-1.225L6.281 12.53l2.667 4.62 9.382-3.96a.5.5 0 0 0 .239-.71l-4.063-7.038a.5.5 0 0 0-.78-.11ZM3.25 14.28a.5.5 0 0 0-.183.683l2.167 3.753a.5.5 0 0 0 .683.183l2.455-1.417-2.667-4.62L3.25 14.28Zm6.031 3.446 2.471-1.054 1.236-.526 1.09 1.89a.674.674 0 0 1-.244.92l-.571.332-1.871 1.09a.5.5 0 0 1-.685-.182l-1.426-2.47Zm8.782-10.122a.375.375 0 1 0 .375.65l2.887-1.667a.375.375 0 1 0-.375-.65l-2.887 1.667Zm1.285 1.693a.375.375 0 0 0-.194.725l1.821.488a.375.375 0 0 0 .194-.725l-1.821-.488Z" clip-rule="evenodd"/></svg> 