<svg width="24" height="24" viewBox="0 0 24 24" xmlns="http://www.w3.org/2000/svg"><path fill-rule="evenodd" clip-rule="evenodd" d="M6.17647 3C4.42216 3 3 4.42216 3 6.17647V17.8235C3 19.5779 4.42216 21 6.17647 21H17.8235C19.5779 21 21 19.5779 21 17.8235V6.17647C21 4.42216 19.5779 3 17.8235 3H6.17647ZM17.4713 8.4868C18.0914 7.86655 18.0914 6.86095 17.4713 6.2407C16.851 5.62045 15.8453 5.62045 15.2251 6.2407C14.6049 6.86095 14.6049 7.86655 15.2251 8.4868C15.8453 9.10705 16.851 9.10705 17.4713 8.4868ZM12.979 10.7329C13.5992 11.3532 13.5992 12.3588 12.979 12.979C12.3588 13.5992 11.3532 13.5992 10.7329 12.979C10.1127 12.3588 10.1127 11.3532 10.7329 10.7329C11.3532 10.1127 12.3588 10.1127 12.979 10.7329ZM8.4868 17.4713C9.10705 16.851 9.10705 15.8453 8.4868 15.2251C7.86655 14.6049 6.86095 14.6049 6.2407 15.2251C5.62045 15.8453 5.62045 16.851 6.2407 17.4713C6.86095 18.0914 7.86655 18.0914 8.4868 17.4713Z" fill="currentColor"/></svg> 