<svg width="24" height="24" viewBox="0 0 24 24" xmlns="http://www.w3.org/2000/svg"><path d="M6 23a2.893 2.893 0 0 1-2.125-.875A2.893 2.893 0 0 1 3 20c0-.833.292-1.542.875-2.125A2.893 2.893 0 0 1 6 17c.233 0 .45.025.65.075.2.05.392.117.575.2L8.65 15.5a4.34 4.34 0 0 1-.975-1.75 4.554 4.554 0 0 1-.125-1.95l-2.025-.675c-.283.417-.642.75-1.075 1-.433.25-.917.375-1.45.375a2.893 2.893 0 0 1-2.125-.875A2.893 2.893 0 0 1 0 9.5c0-.833.292-1.542.875-2.125A2.893 2.893 0 0 1 3 6.5c.833 0 1.542.292 2.125.875S6 8.667 6 9.5v.2l2.025.7c.333-.6.78-1.108 1.338-1.525a4.288 4.288 0 0 1 1.887-.8V5.9a3.115 3.115 0 0 1-1.613-1.063A2.834 2.834 0 0 1 9 3c0-.833.292-1.542.875-2.125A2.893 2.893 0 0 1 12 0c.833 0 1.542.292 2.125.875S15 2.167 15 3a2.8 2.8 0 0 1-.65 1.838 3.188 3.188 0 0 1-1.6 1.062v2.175c.7.117 1.33.383 1.887.8a4.783 4.783 0 0 1 1.338 1.525L18 9.7v-.2c0-.833.292-1.542.875-2.125A2.893 2.893 0 0 1 21 6.5c.833 0 1.542.292 2.125.875S24 8.667 24 9.5s-.292 1.542-.875 2.125A2.893 2.893 0 0 1 21 12.5a2.986 2.986 0 0 1-2.525-1.375l-2.025.675c.1.65.058 1.296-.125 1.938a4.556 4.556 0 0 1-.975 1.762l1.425 1.75c.183-.083.375-.146.575-.188.2-.041.417-.062.65-.062.833 0 1.542.292 2.125.875S21 19.167 21 20s-.292 1.542-.875 2.125A2.893 2.893 0 0 1 18 23a2.893 2.893 0 0 1-2.125-.875A2.893 2.893 0 0 1 15 20c0-.333.054-.654.162-.962a3.2 3.2 0 0 1 .438-.838l-1.425-1.775a4.402 4.402 0 0 1-2.188.575 4.402 4.402 0 0 1-2.187-.575L8.4 18.2c.183.25.33.53.438.838.108.308.162.629.162.962 0 .833-.292 1.542-.875 2.125A2.893 2.893 0 0 1 6 23ZM3 10.5a.97.97 0 0 0 .712-.287A.968.968 0 0 0 4 9.5a.968.968 0 0 0-.288-.713A.968.968 0 0 0 3 8.5a.968.968 0 0 0-.712.287A.968.968 0 0 0 2 9.5c0 .283.096.52.288.713A.968.968 0 0 0 3 10.5ZM6 21a.97.97 0 0 0 .713-.288A.968.968 0 0 0 7 20a.968.968 0 0 0-.287-.712A.967.967 0 0 0 6 19a.967.967 0 0 0-.713.288A.968.968 0 0 0 5 20c0 .283.096.52.287.712.192.192.43.288.713.288Zm6-17a.97.97 0 0 0 .713-.288A.967.967 0 0 0 13 3a.967.967 0 0 0-.287-.712A.968.968 0 0 0 12 2a.968.968 0 0 0-.713.288A.967.967 0 0 0 11 3c0 .283.096.52.287.712.192.192.43.288.713.288Zm0 11c.7 0 1.292-.242 1.775-.725.483-.483.725-1.075.725-1.775s-.242-1.292-.725-1.775C13.292 10.242 12.7 10 12 10s-1.292.242-1.775.725C9.742 11.208 9.5 11.8 9.5 12.5s.242 1.292.725 1.775C10.708 14.758 11.3 15 12 15Zm6 6c.283 0 .52-.096.712-.288A.968.968 0 0 0 19 20a.968.968 0 0 0-.288-.712A.968.968 0 0 0 18 19a.968.968 0 0 0-.712.288A.968.968 0 0 0 17 20c0 .283.096.52.288.712A.965.965 0 0 0 18 21Zm3-10.5a.97.97 0 0 0 .712-.287A.968.968 0 0 0 22 9.5a.967.967 0 0 0-.288-.713A.968.968 0 0 0 21 8.5a.968.968 0 0 0-.712.287A.967.967 0 0 0 20 9.5c0 .283.096.52.288.713A.968.968 0 0 0 21 10.5Z" fill="currentColor"/></svg> 