<svg width="24" height="24" viewBox="0 0 24 24" xmlns="http://www.w3.org/2000/svg"><path fill="currentColor" d="M3 17.2a.94.94 0 0 1 .263-.675.849.849 0 0 1 .637-.275c.133 0 .262.02.387.063.125.041.246.104.363.187a6.2 6.2 0 0 0 .65.35c.217.1.45.15.7.15.55 0 1.02-.196 1.412-.587C7.804 16.02 8 15.55 8 15s-.196-1.02-.588-1.412A1.926 1.926 0 0 0 6 13c-.25 0-.492.042-.725.125a1.84 1.84 0 0 0-.625.375c-.1.083-.217.146-.35.188a1.334 1.334 0 0 1-.4.062.849.849 0 0 1-.637-.275A.94.94 0 0 1 3 12.8V9a.97.97 0 0 1 .288-.713A.968.968 0 0 1 4 8h3.75a4.628 4.628 0 0 1-.25-1.5c0-1.25.438-2.313 1.313-3.188C9.687 2.438 10.75 2 12 2c1.25 0 2.313.438 3.188 1.313.874.874 1.312 1.937 1.312 3.187 0 .25-.02.5-.063.75-.041.25-.104.5-.187.75H20a.97.97 0 0 1 .712.287c.192.192.288.43.288.713v3.8c0 .283-.096.52-.288.712A.968.968 0 0 1 20 13.8a.682.682 0 0 1-.35-.088c-.1-.058-.2-.129-.3-.212a1.84 1.84 0 0 0-.625-.375A2.14 2.14 0 0 0 18 13c-.55 0-1.02.196-1.413.588A1.926 1.926 0 0 0 16 15c0 .55.196 1.02.587 1.413A1.93 1.93 0 0 0 18 17c.25 0 .492-.042.725-.125a1.84 1.84 0 0 0 .625-.375c.083-.083.18-.154.287-.212A.753.753 0 0 1 20 16.2c.283 0 .52.096.712.288A.965.965 0 0 1 21 17.2V21c0 .283-.096.52-.288.712A.968.968 0 0 1 20 22H4a.967.967 0 0 1-.712-.288A.968.968 0 0 1 3 21v-3.8ZM5 20h14v-1.15a3.29 3.29 0 0 1-1 .15c-1.1 0-2.042-.392-2.825-1.175C14.392 17.042 14 16.1 14 15s.392-2.042 1.175-2.825C15.958 11.392 16.9 11 18 11a3.29 3.29 0 0 1 1 .15V10h-4.55a.99.99 0 0 1-.712-.275.898.898 0 0 1-.288-.675c0-.133.02-.27.063-.413a.616.616 0 0 1 .237-.337c.283-.2.48-.463.588-.788.108-.324.162-.662.162-1.012 0-.7-.242-1.292-.725-1.775C13.292 4.242 12.7 4 12 4s-1.292.242-1.775.725C9.742 5.208 9.5 5.8 9.5 6.5c0 .35.054.688.162 1.013.109.325.305.587.588.787a.62.62 0 0 1 .238.313c.041.125.062.254.062.387a.97.97 0 0 1-.288.713.968.968 0 0 1-.712.287H5v1.15A3.29 3.29 0 0 1 6 11c1.1 0 2.042.392 2.825 1.175C9.608 12.958 10 13.9 10 15s-.392 2.042-1.175 2.825C8.042 18.608 7.1 19 6 19a3.29 3.29 0 0 1-1-.15V20Z"/></svg> 