<style>
	svg {
		max-width: 500px;
		max-height: 40vmin;
	}
</style>

<svg width="100%" height="174" viewBox="0 0 352 174" fill="none" xmlns="http://www.w3.org/2000/svg">
<path d="M0 107.233L17.1769 174H95.8622L276.346 168.057L343.664 174L352 113.302L313.731 83.9651L306.279 45.7762L276.346 38.3154L263.59 29.3372L180.484 0L89.042 18.0828L54.5619 29.3372V90.0349L0 107.233Z" fill="white"/>
<path d="M273.49 97.1216C273.49 97.5317 273.417 97.9126 273.271 98.2642C273.124 98.6157 272.919 98.9233 272.655 99.187C272.406 99.436 272.106 99.6338 271.754 99.7803C271.403 99.9268 271.022 100 270.612 100H250.001C249.474 100 248.903 99.9414 248.288 99.8242C247.687 99.6924 247.086 99.4946 246.486 99.231C245.9 98.9673 245.336 98.6304 244.794 98.2202C244.252 97.7954 243.769 97.29 243.344 96.7041C242.934 96.1035 242.604 95.415 242.355 94.6387C242.106 93.8477 241.981 92.9614 241.981 91.98V76.5112C241.981 75.9839 242.04 75.4199 242.157 74.8193C242.289 74.2041 242.487 73.6035 242.75 73.0176C243.014 72.417 243.358 71.8457 243.783 71.3037C244.208 70.7617 244.713 70.2856 245.299 69.8755C245.9 69.4507 246.588 69.1138 247.365 68.8647C248.141 68.6157 249.02 68.4912 250.001 68.4912H273.227V74.2041H250.001C249.254 74.2041 248.683 74.4019 248.288 74.7974C247.892 75.1929 247.694 75.7788 247.694 76.5552V91.98C247.694 92.7124 247.892 93.2837 248.288 93.6938C248.698 94.0894 249.269 94.2871 250.001 94.2871H267.777V87.124H252.572V81.3672H270.612C271.022 81.3672 271.403 81.4478 271.754 81.6089C272.106 81.7554 272.406 81.9604 272.655 82.2241C272.919 82.4878 273.124 82.7954 273.271 83.147C273.417 83.4839 273.49 83.8501 273.49 84.2456V97.1216Z" fill="#111111"/>
<path d="M238.18 74.2041H225.59V100H219.877V74.2041H207.265V68.4912H238.18V74.2041Z" fill="#111111"/>
<path d="M204.057 100H198.344V86.8164C198.344 86.0693 198.212 85.4028 197.948 84.8169C197.699 84.2163 197.355 83.7036 196.916 83.2788C196.476 82.854 195.956 82.5317 195.355 82.312C194.77 82.0776 194.132 81.9604 193.444 81.9604H183.446V100H177.733V79.082C177.733 78.6865 177.807 78.3203 177.953 77.9834C178.1 77.6318 178.305 77.3315 178.568 77.0825C178.832 76.8188 179.14 76.6138 179.491 76.4673C179.843 76.3208 180.216 76.2476 180.612 76.2476H193.488C194.206 76.2476 194.96 76.3281 195.751 76.4893C196.557 76.6504 197.348 76.9141 198.124 77.2803C198.915 77.6318 199.662 78.0859 200.365 78.6426C201.083 79.1846 201.713 79.8511 202.255 80.6421C202.812 81.4185 203.251 82.3193 203.573 83.3447C203.896 84.3701 204.057 85.5273 204.057 86.8164V100Z" fill="#111111"/>
<path d="M173.888 84.1138C173.888 84.9048 173.749 85.7617 173.471 86.6846C173.192 87.5928 172.738 88.4424 172.108 89.2334C171.493 90.0098 170.68 90.6616 169.669 91.189C168.673 91.7163 167.458 91.98 166.022 91.98H155.717V86.5527H166.022C166.798 86.5527 167.399 86.3184 167.824 85.8496C168.249 85.3662 168.461 84.7729 168.461 84.0698C168.461 83.3228 168.219 82.7368 167.736 82.312C167.267 81.8872 166.696 81.6748 166.022 81.6748H155.717C154.94 81.6748 154.34 81.9165 153.915 82.3999C153.49 82.8687 153.278 83.4546 153.278 84.1577V92.1338C153.278 92.8955 153.512 93.4888 153.981 93.9136C154.464 94.3384 155.058 94.5508 155.761 94.5508H166.022V100H155.717C154.926 100 154.069 99.8608 153.146 99.5825C152.238 99.3042 151.388 98.8574 150.597 98.2422C149.821 97.6123 149.169 96.7993 148.642 95.8032C148.114 94.7925 147.851 93.5693 147.851 92.1338V84.1138C147.851 83.3228 147.99 82.4731 148.268 81.5649C148.546 80.6421 148.993 79.7925 149.608 79.0161C150.238 78.2251 151.051 77.5659 152.047 77.0386C153.058 76.5112 154.281 76.2476 155.717 76.2476H166.022C166.813 76.2476 167.663 76.3867 168.571 76.665C169.494 76.9434 170.343 77.3975 171.12 78.0273C171.911 78.6426 172.57 79.4556 173.097 80.4663C173.625 81.4624 173.888 82.6782 173.888 84.1138Z" fill="#111111"/>
<path d="M143.456 91.98C143.456 92.9614 143.332 93.8477 143.083 94.6387C142.833 95.415 142.504 96.1035 142.094 96.7041C141.684 97.29 141.208 97.7954 140.666 98.2202C140.124 98.6304 139.552 98.9673 138.952 99.231C138.366 99.4946 137.772 99.6924 137.172 99.8242C136.571 99.9414 136 100 135.458 100H125.153V94.2871H135.458C136.22 94.2871 136.791 94.0894 137.172 93.6938C137.553 93.2983 137.743 92.7271 137.743 91.98V84.2896C137.743 83.4985 137.545 82.9126 137.15 82.5317C136.769 82.1509 136.205 81.9604 135.458 81.9604H125.197C124.42 81.9604 123.834 82.1582 123.439 82.5537C123.043 82.9346 122.846 83.4985 122.846 84.2456V107.427H117.133V84.2456C117.133 83.2642 117.257 82.3853 117.506 81.6089C117.755 80.8325 118.085 80.1514 118.495 79.5654C118.92 78.9648 119.403 78.4595 119.945 78.0493C120.487 77.6245 121.051 77.2803 121.637 77.0166C122.238 76.7529 122.838 76.5625 123.439 76.4453C124.054 76.3135 124.625 76.2476 125.153 76.2476H135.458C136.439 76.2476 137.318 76.3721 138.095 76.6211C138.871 76.8701 139.552 77.1997 140.138 77.6099C140.739 78.02 141.244 78.4961 141.654 79.0381C142.079 79.5801 142.423 80.1514 142.687 80.752C142.951 81.3379 143.141 81.9312 143.258 82.5317C143.39 83.1323 143.456 83.7036 143.456 84.2456V91.98Z" fill="#111111"/>
<path d="M112.387 87.2559C112.387 89.1748 112.057 90.9399 111.398 92.5513C110.739 94.1626 109.823 95.5542 108.651 96.7261C107.479 97.8979 106.088 98.8135 104.477 99.4727C102.88 100.117 101.137 100.439 99.2471 100.439H91.5127C89.623 100.439 87.8726 100.117 86.2612 99.4727C84.6499 98.8135 83.2583 97.8979 82.0864 96.7261C80.9146 95.5542 79.9917 94.1626 79.3179 92.5513C78.6587 90.9399 78.3291 89.1748 78.3291 87.2559V81.2354C78.3291 79.3311 78.6587 77.5732 79.3179 75.9619C79.9917 74.3359 80.9146 72.9443 82.0864 71.7871C83.2583 70.6152 84.6499 69.6997 86.2612 69.0405C87.8726 68.3813 89.623 68.0518 91.5127 68.0518H99.2471C101.137 68.0518 102.88 68.3813 104.477 69.0405C106.088 69.6997 107.479 70.6152 108.651 71.7871C109.823 72.9443 110.739 74.3359 111.398 75.9619C112.057 77.5732 112.387 79.3311 112.387 81.2354V87.2559ZM106.674 81.2354C106.674 80.1074 106.491 79.0894 106.125 78.1812C105.773 77.2583 105.268 76.4746 104.608 75.8301C103.964 75.1709 103.18 74.6655 102.257 74.314C101.349 73.9478 100.346 73.7646 99.2471 73.7646H91.5127C90.3994 73.7646 89.3813 73.9478 88.4585 74.314C87.5503 74.6655 86.7666 75.1709 86.1074 75.8301C85.4482 76.4746 84.9355 77.2583 84.5693 78.1812C84.2178 79.0894 84.042 80.1074 84.042 81.2354V87.2559C84.042 88.3838 84.2178 89.4092 84.5693 90.332C84.9355 91.2402 85.4482 92.0239 86.1074 92.6831C86.7666 93.3276 87.5503 93.833 88.4585 94.1992C89.3813 94.5508 90.3994 94.7266 91.5127 94.7266H99.2031C100.316 94.7266 101.327 94.5508 102.235 94.1992C103.158 93.833 103.949 93.3276 104.608 92.6831C105.268 92.0239 105.773 91.2402 106.125 90.332C106.491 89.4092 106.674 88.3838 106.674 87.2559V81.2354Z" fill="#111111"/>
<path d="M64 123H291V136H64V123Z" fill="#111111"/>
<path d="M56 123H63V136H56V123Z" fill="#111111"/>
<path d="M50 123H55V136H50V123Z" fill="#111111"/>
<path d="M46 123H49V136H46V123Z" fill="#111111"/>
<path d="M43 123H45V136H43V123Z" fill="#111111"/>
<path d="M41 123H42V136H41V123Z" fill="#111111"/>
<path d="M299 123H292V136H299V123Z" fill="#111111"/>
<path d="M305 123H300V136H305V123Z" fill="#111111"/>
<path d="M309 123H306V136H309V123Z" fill="#111111"/>
<path d="M312 123H310V136H312V123Z" fill="#111111"/>
<path d="M314 123H313V136H314V123Z" fill="#111111"/>
</svg>
