<svg width="351" height="220" viewBox="0 0 351 220" fill="none" xmlns="http://www.w3.org/2000/svg">
<g clip-path="url(#clip0_1195_288)">
<path fill-rule="evenodd" clip-rule="evenodd" d="M3 142L0 144V199L3 201H87.4268C88.4564 198.087 91.2345 196 94.5 196C97.7655 196 100.544 198.087 101.573 201H122.416C122.148 200.388 122 199.711 122 199V197C122 194.239 124.239 192 127 192H131C133.761 192 136 194.239 136 197V199C136 199.711 135.852 200.388 135.584 201H216.416C216.148 200.388 216 199.711 216 199V197C216 194.239 218.239 192 221 192H225C227.761 192 230 194.239 230 197V199C230 199.711 229.852 200.388 229.584 201H250.427C251.456 198.087 254.234 196 257.5 196C260.766 196 263.544 198.087 264.573 201H348L351 199V144L348 142H3ZM177.5 187C181.642 187 185 183.642 185 179.5C185 175.358 181.642 172 177.5 172C173.358 172 170 175.358 170 179.5C170 183.642 173.358 187 177.5 187Z" fill="#FF0000" fill-opacity="0.34"/>
<path fill-rule="evenodd" clip-rule="evenodd" d="M3 142L0 144V199L3 201H87.4268C88.4564 198.087 91.2345 196 94.5 196C97.7655 196 100.544 198.087 101.573 201H122.416C122.148 200.388 122 199.711 122 199V197C122 194.239 124.239 192 127 192H131C133.761 192 136 194.239 136 197V199C136 199.711 135.852 200.388 135.584 201H216.416C216.148 200.388 216 199.711 216 199V197C216 194.239 218.239 192 221 192H225C227.761 192 230 194.239 230 197V199C230 199.711 229.852 200.388 229.584 201H250.427C251.456 198.087 254.234 196 257.5 196C260.766 196 263.544 198.087 264.573 201H348L351 199V144L348 142H3ZM177.5 187C181.642 187 185 183.642 185 179.5C185 175.358 181.642 172 177.5 172C173.358 172 170 175.358 170 179.5C170 183.642 173.358 187 177.5 187Z" fill="#393534"/>
<path fill-rule="evenodd" clip-rule="evenodd" d="M249.5 168C287.332 168 318 137.332 318 99.5C318 61.6685 287.332 31 249.5 31C211.668 31 181 61.6685 181 99.5C181 137.332 211.668 168 249.5 168ZM249.5 117C259.165 117 267 109.165 267 99.5C267 89.835 259.165 82 249.5 82C239.835 82 232 89.835 232 99.5C232 109.165 239.835 117 249.5 117Z" fill="#6E5F64"/>
<path fill-rule="evenodd" clip-rule="evenodd" d="M101.5 168C139.332 168 170 137.332 170 99.5C170 61.6685 139.332 31 101.5 31C63.6685 31 33 61.6685 33 99.5C33 137.332 63.6685 168 101.5 168ZM101.5 117C111.165 117 119 109.165 119 99.5C119 89.835 111.165 82 101.5 82C91.835 82 84 89.835 84 99.5C84 109.165 91.835 117 101.5 117Z" fill="#6E5F64"/>
<path fill-rule="evenodd" clip-rule="evenodd" d="M249.5 140C271.868 140 290 121.868 290 99.5C290 77.1325 271.868 59 249.5 59C227.132 59 209 77.1325 209 99.5C209 121.868 227.132 140 249.5 140ZM249.5 117C259.165 117 267 109.165 267 99.5C267 89.835 259.165 82 249.5 82C239.835 82 232 89.835 232 99.5C232 109.165 239.835 117 249.5 117Z" fill="white"/>
<path fill-rule="evenodd" clip-rule="evenodd" d="M101.5 140C123.868 140 142 121.868 142 99.5C142 77.1325 123.868 59 101.5 59C79.1325 59 61 77.1325 61 99.5C61 121.868 79.1325 140 101.5 140ZM101.5 117C111.165 117 119 109.165 119 99.5C119 89.835 111.165 82 101.5 82C91.835 82 84 89.835 84 99.5C84 109.165 91.835 117 101.5 117Z" fill="white"/>
<path fill-rule="evenodd" clip-rule="evenodd" d="M104.195 65H99.1948V85.1822C99.9455 85.0623 100.715 85 101.5 85C102.421 85 103.322 85.0858 104.195 85.25V65ZM112.397 89.9342C113.496 91.1852 114.383 92.6271 115.002 94.2037L132.39 84.1651L129.89 79.8349L112.397 89.9342ZM115.299 103.967C114.776 105.584 113.977 107.076 112.957 108.389L129.89 118.165L132.39 113.835L115.299 103.967ZM104.195 113.75C103.322 113.914 102.421 114 101.5 114C100.715 114 99.9455 113.938 99.1948 113.818V133H104.195V113.75ZM90.1651 108.543C89.1275 107.245 88.3085 105.764 87.7638 104.156L71 113.835L73.5 118.165L90.1651 108.543ZM88.0709 94.021C88.7112 92.4532 89.618 91.0227 90.735 89.7856L73.5 79.8349L71 84.1651L88.0709 94.021Z" fill="white"/>
<path fill-rule="evenodd" clip-rule="evenodd" d="M252.195 65H247.195V85.1822C247.946 85.0623 248.715 85 249.5 85C250.421 85 251.322 85.0858 252.195 85.25V65ZM260.397 89.9342C261.496 91.1852 262.383 92.6271 263.002 94.2037L280.39 84.1651L277.89 79.8349L260.397 89.9342ZM263.299 103.967C262.776 105.584 261.977 107.076 260.957 108.389L277.89 118.165L280.39 113.835L263.299 103.967ZM252.195 113.75C251.322 113.914 250.421 114 249.5 114C248.715 114 247.946 113.938 247.195 113.818V133H252.195V113.75ZM238.165 108.543C237.128 107.245 236.309 105.764 235.764 104.156L219 113.835L221.5 118.165L238.165 108.543ZM236.071 94.021C236.711 92.4532 237.618 91.0227 238.735 89.7856L221.5 79.8349L219 84.1651L236.071 94.021Z" fill="white"/>
<path fill-rule="evenodd" clip-rule="evenodd" d="M3 10C3 4.47716 7.47715 0 13 0H339C344.523 0 349 4.47715 349 10V210C349 215.523 344.523 220 339 220H13C7.47716 220 3 215.523 3 210V10ZM122 99.5C122 110.822 112.822 120 101.5 120C90.1782 120 81 110.822 81 99.5C81 88.1782 90.1782 79 101.5 79C112.822 79 122 88.1782 122 99.5ZM249.5 120C260.822 120 270 110.822 270 99.5C270 88.1782 260.822 79 249.5 79C238.178 79 229 88.1782 229 99.5C229 110.822 238.178 120 249.5 120ZM140 80H211V106H140V80ZM94.5 211C98.6421 211 102 207.642 102 203.5C102 199.358 98.6421 196 94.5 196C90.3579 196 87 199.358 87 203.5C87 207.642 90.3579 211 94.5 211ZM265 203.5C265 207.642 261.642 211 257.5 211C253.358 211 250 207.642 250 203.5C250 199.358 253.358 196 257.5 196C261.642 196 265 199.358 265 203.5ZM177.5 187C181.642 187 185 183.642 185 179.5C185 175.358 181.642 172 177.5 172C173.358 172 170 175.358 170 179.5C170 183.642 173.358 187 177.5 187ZM122 197C122 194.239 124.239 192 127 192H131C133.761 192 136 194.239 136 197V199C136 201.761 133.761 204 131 204H127C124.239 204 122 201.761 122 199V197ZM221 192C218.239 192 216 194.239 216 197V199C216 201.761 218.239 204 221 204H225C227.761 204 230 201.761 230 199V197C230 194.239 227.761 192 225 192H221Z" fill="#FF0000" fill-opacity="0.34"/>
<path fill-rule="evenodd" clip-rule="evenodd" d="M3 10C3 4.47716 7.47715 0 13 0H339C344.523 0 349 4.47715 349 10V210C349 215.523 344.523 220 339 220H13C7.47716 220 3 215.523 3 210V10ZM122 99.5C122 110.822 112.822 120 101.5 120C90.1782 120 81 110.822 81 99.5C81 88.1782 90.1782 79 101.5 79C112.822 79 122 88.1782 122 99.5ZM249.5 120C260.822 120 270 110.822 270 99.5C270 88.1782 260.822 79 249.5 79C238.178 79 229 88.1782 229 99.5C229 110.822 238.178 120 249.5 120ZM140 80H211V106H140V80ZM94.5 211C98.6421 211 102 207.642 102 203.5C102 199.358 98.6421 196 94.5 196C90.3579 196 87 199.358 87 203.5C87 207.642 90.3579 211 94.5 211ZM265 203.5C265 207.642 261.642 211 257.5 211C253.358 211 250 207.642 250 203.5C250 199.358 253.358 196 257.5 196C261.642 196 265 199.358 265 203.5ZM177.5 187C181.642 187 185 183.642 185 179.5C185 175.358 181.642 172 177.5 172C173.358 172 170 175.358 170 179.5C170 183.642 173.358 187 177.5 187ZM122 197C122 194.239 124.239 192 127 192H131C133.761 192 136 194.239 136 197V199C136 201.761 133.761 204 131 204H127C124.239 204 122 201.761 122 199V197ZM221 192C218.239 192 216 194.239 216 197V199C216 201.761 218.239 204 221 204H225C227.761 204 230 201.761 230 199V197C230 194.239 227.761 192 225 192H221Z" fill="#322E2D"/>
<path fill-rule="evenodd" clip-rule="evenodd" d="M34.8787 15C33.6676 15 32.4976 15.4396 31.5862 16.2371L18.7075 27.506C17.6224 28.4554 17 29.827 17 31.2688V157C17 159.761 19.2386 162 22 162H329C331.761 162 334 159.761 334 157V31.2688C334 29.827 333.378 28.4554 332.293 27.506L319.414 16.2371C318.502 15.4396 317.332 15 316.121 15H34.8787ZM101.5 120C112.822 120 122 110.822 122 99.5C122 88.1782 112.822 79 101.5 79C90.1782 79 81 88.1782 81 99.5C81 110.822 90.1782 120 101.5 120ZM270 99.5C270 110.822 260.822 120 249.5 120C238.178 120 229 110.822 229 99.5C229 88.1782 238.178 79 249.5 79C260.822 79 270 88.1782 270 99.5ZM211 80H140V106H211V80Z" fill="#393534"/>
<rect x="140" y="80" width="71" height="26" fill="white" fill-opacity="0.2"/>
<path fill-rule="evenodd" clip-rule="evenodd" d="M78 100C78 87.2975 88.2975 77 101 77H250C262.703 77 273 87.2975 273 100C273 112.703 262.703 123 250 123H101C88.2975 123 78 112.703 78 100ZM101.5 120C112.822 120 122 110.822 122 99.5C122 88.1782 112.822 79 101.5 79C90.1782 79 81 88.1782 81 99.5C81 110.822 90.1782 120 101.5 120ZM249.5 120C260.822 120 270 110.822 270 99.5C270 88.1782 260.822 79 249.5 79C238.178 79 229 88.1782 229 99.5C229 110.822 238.178 120 249.5 120ZM211 80H140V106H211V80Z" fill="#383838"/>
<circle cx="13" cy="10" r="8" fill="#252424"/>
<circle cx="13" cy="210" r="8" fill="#252424"/>
<circle cx="339" cy="10" r="8" fill="#252424"/>
<circle cx="339" cy="210" r="8" fill="#252424"/>
<path fill-rule="evenodd" clip-rule="evenodd" d="M283 165H71L61 220H293L283 165ZM94.5 211C98.6421 211 102 207.642 102 203.5C102 199.358 98.6421 196 94.5 196C90.3579 196 87 199.358 87 203.5C87 207.642 90.3579 211 94.5 211ZM265 203.5C265 207.642 261.642 211 257.5 211C253.358 211 250 207.642 250 203.5C250 199.358 253.358 196 257.5 196C261.642 196 265 199.358 265 203.5ZM177.5 187C181.642 187 185 183.642 185 179.5C185 175.358 181.642 172 177.5 172C173.358 172 170 175.358 170 179.5C170 183.642 173.358 187 177.5 187ZM122 197C122 194.239 124.239 192 127 192H131C133.761 192 136 194.239 136 197V199C136 201.761 133.761 204 131 204H127C124.239 204 122 201.761 122 199V197ZM221 192C218.239 192 216 194.239 216 197V199C216 201.761 218.239 204 221 204H225C227.761 204 230 201.761 230 199V197C230 194.239 227.761 192 225 192H221Z" fill="#393737"/>
<path fill-rule="evenodd" clip-rule="evenodd" d="M279.345 168H74.6552L65 219H289L279.345 168ZM94.5 211C98.6421 211 102 207.642 102 203.5C102 199.358 98.6421 196 94.5 196C90.3579 196 87 199.358 87 203.5C87 207.642 90.3579 211 94.5 211ZM265 203.5C265 207.642 261.642 211 257.5 211C253.358 211 250 207.642 250 203.5C250 199.358 253.358 196 257.5 196C261.642 196 265 199.358 265 203.5ZM177.5 187C181.642 187 185 183.642 185 179.5C185 175.358 181.642 172 177.5 172C173.358 172 170 175.358 170 179.5C170 183.642 173.358 187 177.5 187ZM122 197C122 194.239 124.239 192 127 192H131C133.761 192 136 194.239 136 197V199C136 201.761 133.761 204 131 204H127C124.239 204 122 201.761 122 199V197ZM221 192C218.239 192 216 194.239 216 197V199C216 201.761 218.239 204 221 204H225C227.761 204 230 201.761 230 199V197C230 194.239 227.761 192 225 192H221Z" fill="#393534"/>
<rect x="140" y="107" width="1" height="6" fill="#464646"/>
<rect x="147" y="107" width="1" height="4.5" fill="#464646"/>
<rect x="154" y="107" width="1" height="4.5" fill="#464646"/>
<rect x="161" y="107" width="1" height="4.5" fill="#464646"/>
<rect x="168" y="107" width="1" height="4.5" fill="#464646"/>
<rect x="175" y="107" width="1" height="6" fill="#464646"/>
<rect x="182" y="107" width="1" height="4.5" fill="#464646"/>
<rect x="189" y="107" width="1" height="4.5" fill="#464646"/>
<rect x="196" y="107" width="1" height="4.5" fill="#464646"/>
<rect x="203" y="107" width="1" height="4.5" fill="#464646"/>
<rect x="210" y="107" width="1" height="6" fill="#464646"/>
<path d="M135.979 115.455V122H135.186V116.286H135.148L133.55 117.347V116.541L135.186 115.455H135.979ZM139.996 122.089C139.515 122.089 139.104 121.958 138.766 121.696C138.427 121.432 138.168 121.05 137.989 120.549C137.81 120.046 137.721 119.439 137.721 118.727C137.721 118.02 137.81 117.416 137.989 116.915C138.17 116.412 138.43 116.029 138.769 115.765C139.11 115.498 139.519 115.365 139.996 115.365C140.473 115.365 140.881 115.498 141.22 115.765C141.561 116.029 141.821 116.412 142 116.915C142.181 117.416 142.272 118.02 142.272 118.727C142.272 119.439 142.182 120.046 142.003 120.549C141.824 121.05 141.565 121.432 141.227 121.696C140.888 121.958 140.478 122.089 139.996 122.089ZM139.996 121.386C140.473 121.386 140.844 121.156 141.108 120.696C141.373 120.236 141.505 119.58 141.505 118.727C141.505 118.161 141.444 117.678 141.322 117.279C141.203 116.881 141.031 116.577 140.805 116.369C140.581 116.16 140.311 116.055 139.996 116.055C139.523 116.055 139.153 116.289 138.887 116.755C138.621 117.22 138.488 117.877 138.488 118.727C138.488 119.294 138.547 119.776 138.667 120.172C138.786 120.568 138.957 120.87 139.181 121.076C139.407 121.283 139.679 121.386 139.996 121.386ZM145.621 122.089C145.14 122.089 144.729 121.958 144.391 121.696C144.052 121.432 143.793 121.05 143.614 120.549C143.435 120.046 143.346 119.439 143.346 118.727C143.346 118.02 143.435 117.416 143.614 116.915C143.795 116.412 144.055 116.029 144.394 115.765C144.735 115.498 145.144 115.365 145.621 115.365C146.098 115.365 146.506 115.498 146.845 115.765C147.186 116.029 147.446 116.412 147.625 116.915C147.806 117.416 147.897 118.02 147.897 118.727C147.897 119.439 147.807 120.046 147.628 120.549C147.449 121.05 147.19 121.432 146.852 121.696C146.513 121.958 146.103 122.089 145.621 122.089ZM145.621 121.386C146.098 121.386 146.469 121.156 146.733 120.696C146.998 120.236 147.13 119.58 147.13 118.727C147.13 118.161 147.069 117.678 146.947 117.279C146.828 116.881 146.656 116.577 146.43 116.369C146.206 116.16 145.936 116.055 145.621 116.055C145.148 116.055 144.778 116.289 144.512 116.755C144.246 117.22 144.113 117.877 144.113 118.727C144.113 119.294 144.172 119.776 144.292 120.172C144.411 120.568 144.582 120.87 144.806 121.076C145.032 121.283 145.304 121.386 145.621 121.386Z" fill="#464646"/>
<path d="M171.723 122.089C171.348 122.089 171.01 122.015 170.71 121.866C170.409 121.717 170.169 121.512 169.988 121.252C169.806 120.992 169.707 120.696 169.69 120.364H170.457C170.487 120.66 170.621 120.905 170.86 121.099C171.101 121.29 171.388 121.386 171.723 121.386C171.991 121.386 172.23 121.324 172.439 121.198C172.65 121.072 172.815 120.9 172.934 120.68C173.056 120.458 173.116 120.208 173.116 119.929C173.116 119.643 173.054 119.389 172.928 119.165C172.804 118.939 172.634 118.761 172.417 118.631C172.199 118.501 171.951 118.435 171.672 118.433C171.472 118.431 171.266 118.462 171.055 118.526C170.844 118.588 170.67 118.668 170.534 118.766L169.793 118.676L170.189 115.455H173.589V116.158H170.854L170.624 118.088H170.662C170.796 117.982 170.964 117.893 171.167 117.823C171.369 117.752 171.58 117.717 171.8 117.717C172.2 117.717 172.557 117.813 172.87 118.005C173.186 118.195 173.433 118.455 173.612 118.785C173.793 119.115 173.884 119.492 173.884 119.916C173.884 120.334 173.79 120.707 173.602 121.035C173.417 121.361 173.161 121.619 172.835 121.808C172.509 121.996 172.138 122.089 171.723 122.089ZM177.288 122.089C176.807 122.089 176.396 121.958 176.058 121.696C175.719 121.432 175.46 121.05 175.281 120.549C175.102 120.046 175.013 119.439 175.013 118.727C175.013 118.02 175.102 117.416 175.281 116.915C175.462 116.412 175.722 116.029 176.061 115.765C176.402 115.498 176.811 115.365 177.288 115.365C177.765 115.365 178.173 115.498 178.512 115.765C178.853 116.029 179.113 116.412 179.292 116.915C179.473 117.416 179.564 118.02 179.564 118.727C179.564 119.439 179.474 120.046 179.295 120.549C179.116 121.05 178.857 121.432 178.519 121.696C178.18 121.958 177.77 122.089 177.288 122.089ZM177.288 121.386C177.765 121.386 178.136 121.156 178.4 120.696C178.665 120.236 178.797 119.58 178.797 118.727C178.797 118.161 178.736 117.678 178.614 117.279C178.495 116.881 178.323 116.577 178.097 116.369C177.873 116.16 177.603 116.055 177.288 116.055C176.815 116.055 176.445 116.289 176.179 116.755C175.913 117.22 175.78 117.877 175.78 118.727C175.78 119.294 175.839 119.776 175.959 120.172C176.078 120.568 176.249 120.87 176.473 121.076C176.699 121.283 176.971 121.386 177.288 121.386Z" fill="#464646"/>
<path d="M210.812 122.089C210.331 122.089 209.921 121.958 209.582 121.696C209.243 121.432 208.984 121.05 208.805 120.549C208.626 120.046 208.537 119.439 208.537 118.727C208.537 118.02 208.626 117.416 208.805 116.915C208.987 116.412 209.246 116.029 209.585 115.765C209.926 115.498 210.335 115.365 210.812 115.365C211.29 115.365 211.698 115.498 212.037 115.765C212.377 116.029 212.637 116.412 212.816 116.915C212.998 117.416 213.088 118.02 213.088 118.727C213.088 119.439 212.999 120.046 212.82 120.549C212.641 121.05 212.382 121.432 212.043 121.696C211.704 121.958 211.294 122.089 210.812 122.089ZM210.812 121.386C211.29 121.386 211.661 121.156 211.925 120.696C212.189 120.236 212.321 119.58 212.321 118.727C212.321 118.161 212.26 117.678 212.139 117.279C212.02 116.881 211.847 116.577 211.621 116.369C211.397 116.16 211.128 116.055 210.812 116.055C210.339 116.055 209.97 116.289 209.703 116.755C209.437 117.22 209.304 117.877 209.304 118.727C209.304 119.294 209.364 119.776 209.483 120.172C209.602 120.568 209.774 120.87 209.998 121.076C210.223 121.283 210.495 121.386 210.812 121.386Z" fill="#464646"/>
<circle cx="13" cy="10" r="7" fill="#E8E8E8"/>
<path fill-rule="evenodd" clip-rule="evenodd" d="M14.5745 7.72504C13.7047 8.59487 12.2944 8.59487 11.4246 7.72504L10.2032 6.50362C10.0079 6.30836 9.69132 6.30836 9.49606 6.50362C9.30079 6.69889 9.30079 7.01547 9.49606 7.21073L10.7209 8.4356C11.5888 9.30351 11.5888 10.7107 10.7209 11.5786L9.50297 12.7966C9.3077 12.9918 9.3077 13.3084 9.50297 13.5037C9.69823 13.6989 10.0148 13.6989 10.2101 13.5037L11.428 12.2857C12.296 11.4178 13.7031 11.4178 14.571 12.2857L15.789 13.5036C15.9842 13.6989 16.3008 13.6989 16.4961 13.5036C16.6913 13.3084 16.6913 12.9918 16.4961 12.7965L15.2781 11.5786C14.4102 10.7107 14.4102 9.30352 15.2781 8.43561L16.503 7.21075C16.6983 7.01549 16.6983 6.69891 16.503 6.50365C16.3077 6.30838 15.9911 6.30838 15.7959 6.50365L14.5745 7.72504Z" fill="#D9D9D9"/>
<circle cx="13" cy="210" r="7" fill="#E8E8E8"/>
<path fill-rule="evenodd" clip-rule="evenodd" d="M14.5745 207.725C13.7047 208.595 12.2944 208.595 11.4246 207.725L10.2032 206.504C10.0079 206.308 9.69132 206.308 9.49606 206.504C9.30079 206.699 9.30079 207.015 9.49606 207.211L10.7209 208.436C11.5888 209.304 11.5888 210.711 10.7209 211.579L9.50297 212.797C9.3077 212.992 9.3077 213.308 9.50297 213.504C9.69823 213.699 10.0148 213.699 10.2101 213.504L11.428 212.286C12.296 211.418 13.7031 211.418 14.571 212.286L15.789 213.504C15.9842 213.699 16.3008 213.699 16.4961 213.504C16.6913 213.308 16.6913 212.992 16.4961 212.797L15.2781 211.579C14.4102 210.711 14.4102 209.304 15.2781 208.436L16.503 207.211C16.6983 207.015 16.6983 206.699 16.503 206.504C16.3077 206.308 15.9911 206.308 15.7959 206.504L14.5745 207.725Z" fill="#D9D9D9"/>
<circle cx="339" cy="10" r="7" fill="#E8E8E8"/>
<path fill-rule="evenodd" clip-rule="evenodd" d="M340.574 7.72504C339.705 8.59487 338.294 8.59487 337.425 7.72504L336.203 6.50362C336.008 6.30836 335.691 6.30836 335.496 6.50362C335.301 6.69889 335.301 7.01547 335.496 7.21073L336.721 8.4356C337.589 9.30351 337.589 10.7107 336.721 11.5786L335.503 12.7966C335.308 12.9918 335.308 13.3084 335.503 13.5037C335.698 13.6989 336.015 13.6989 336.21 13.5037L337.428 12.2857C338.296 11.4178 339.703 11.4178 340.571 12.2857L341.789 13.5036C341.984 13.6989 342.301 13.6989 342.496 13.5036C342.691 13.3084 342.691 12.9918 342.496 12.7965L341.278 11.5786C340.41 10.7107 340.41 9.30352 341.278 8.43561L342.503 7.21075C342.698 7.01549 342.698 6.69891 342.503 6.50365C342.308 6.30838 341.991 6.30838 341.796 6.50365L340.574 7.72504Z" fill="#D9D9D9"/>
<circle cx="339" cy="210" r="7" fill="#E8E8E8"/>
<path fill-rule="evenodd" clip-rule="evenodd" d="M340.574 207.725C339.705 208.595 338.294 208.595 337.425 207.725L336.203 206.504C336.008 206.308 335.691 206.308 335.496 206.504C335.301 206.699 335.301 207.015 335.496 207.211L336.721 208.436C337.589 209.304 337.589 210.711 336.721 211.579L335.503 212.797C335.308 212.992 335.308 213.308 335.503 213.504C335.698 213.699 336.015 213.699 336.21 213.504L337.428 212.286C338.296 211.418 339.703 211.418 340.571 212.286L341.789 213.504C341.984 213.699 342.301 213.699 342.496 213.504C342.691 213.308 342.691 212.992 342.496 212.797L341.278 211.579C340.41 210.711 340.41 209.304 341.278 208.436L342.503 207.211C342.698 207.015 342.698 206.699 342.503 206.504C342.308 206.308 341.991 206.308 341.796 206.504L340.574 207.725Z" fill="#D9D9D9"/>
<path fill-rule="evenodd" clip-rule="evenodd" d="M36.2921 17C35.3286 17 34.3975 17.3478 33.6699 17.9794L20.3778 29.5182C19.5026 30.2779 19 31.3799 19 32.5388V157C19 159.209 20.7909 161 23 161H328C330.209 161 332 159.209 332 157V32.5388C332 31.3799 331.497 30.2779 330.622 29.5182L317.33 17.9794C316.603 17.3478 315.671 17 314.708 17H36.2921ZM99 76C85.7452 76 75 86.7452 75 100C75 113.255 85.7452 124 99 124H252C265.255 124 276 113.255 276 100C276 86.7452 265.255 76 252 76H99Z" fill="#DBDBDB"/>
</g>
<defs>
<clipPath id="clip0_1195_288">
<rect width="351" height="220" fill="white"/>
</clipPath>
</defs>
</svg>
