<svg width="690" height="360" fill="none" xmlns="http://www.w3.org/2000/svg"><g clip-path="url(#a)"><path fill="#F9F5ED" d="M0 0h690v360H0z"/><path fill-rule="evenodd" clip-rule="evenodd" d="m246 339-1 1-1 1-3 2-4 2-7 6-4 2-2 3-6 4-3 3-2 2h-1v2h1v1h1l2 1 2 1h1l14 7 1-2 4-14 8 2v-3h1v-2l1-1v-2l2-6 17 5-1 5 14 4 6-22 1-1v-4l4-12v-2l-2-1h-2l-5-1h-4l-1 1h-2l-8 5-4 2-2 1-6 4-1 1-1 1-2 1-5 3ZM199 291v1l-2 6 8 2 4 1-2 6-2 5 12 3-11 41-1 6 4-3 1-2 2-1 3-2 12-7 2-1 4-2 4-3 2-1 3-2 2-1 11-7 34-22-8-3-40-11-39-10-3 7ZM195 68l3 10 1 1 6 15 1 1 4 1h7v-2l-1-1v-1l-1-1 8-10 6-4 8-1 5-19h5l3 2 1 1 3 2 2 2 2 2 4 1v1h1v1h-1l-7 27h-1l-2-1-9-5-1-1-4-5-1 1-4 12 5 1 9 1h1l3 3h1l1 4 4 11 1 2 1 1 15-7h2l2-2 2-1 1-1 1-2 1-2 1-2 14-53v-3l1-2v-4h-1l-1-1-2-1h-3l-48-5h-3l-11 6-2 5-6 2h-1l-1 1-3 2-2 3-1 2-1 1-17 6v1l-1 5ZM585 188l4 8 2 2 1 1 16 8 1 1h1l2 1h2l26-6 9-2v-1l-1-1v-3l-1-3-3-6-2-3-1-2-1-2-1-2-1-2-1-1-2-1-2-2-2-2-2-1v-1l-1-1v1l-2-2-2-1-1-1h-1l-2-1-1-1h-2l-2-1h-2l-2-1h-3l-2-1-2 1h-4l-2 1h-1l-7 3-1 1-3 2v1l-1 1h-1l-2 1-3-1-2 2v-1 1l1 2 7 15ZM28 347v3l2 2 2 2 1 1 1-5-6-3Z" fill="#B5DFC0"/><path fill-rule="evenodd" clip-rule="evenodd" d="m590 158-4 9 3-2 1-1 7-3h1l2-1h4l2-1 2 1h2l3-7 1-1v-1h-1l-2 2-3 1h-5l-3-1-4-4-6 9ZM583 175l1 1 5-2-1-2-5 3ZM568 336v9l-2 3v3h27l1-2v-20h-4l-5 1h-8v2h-2l-5 1v3h-2ZM384 319v-2l3 1 17 4 1-2-17-4 1-3-1-1-2-1-2-1-1-1h-1l-2-1v3h1l-2 5v1l5 2ZM59 30h1l1-53 19-8-49-17 1 7v10l-1 3-5 33 3 1 1-1 9 3 4 1-4 15h1l-1 1 18 5h2ZM22 310v1l18-3 1 1v1l-1 3 1 1 3 1 3-11 2-2 4-6-8-1-24 5v5l1 5ZM413 359l1 1h2l2 1h1l3 1v5h3l1-4 4 1v-1l7 2 1-4-20-5-4-1-1 3v1ZM152 257l-2-6 1-7h-1l-24-7-2 8 3 7 2 2h1l5 1 5 1 12 1ZM99 235h-1l-1 5v1h3v1-1h1l1-5v-1h-3v-1 1ZM102 277l2-5-4-1-2 5 4 1ZM451 318l-4 14 11 3h1l4-14-12-3ZM3 36v4h3v-4H3ZM673 353v2h-2l-1 1h-3v1l-1 2-1 1 4 2 1 1 1 1 2-4h6v-21h7l1-1h2v-6l-7 2-8 2-7 1-6 2h-1v2h5v5h8v7ZM185 333h1l-1 1v1l2 1h1v-4h-2v1h-1ZM178 331v3h1l-1-1 1-1-1-1ZM176 330v1h1v-1h-1ZM176 331v1h-1 1l1-1h-1ZM179 341l-1 2 2 1 1-3h-2ZM178 340h-2l1-3v-1l-1 4v1l2 1v-2ZM174 339l-1 2h1v-2ZM174 339l1-2-1-1v3ZM175 336l1-2h-1v2ZM181 324h-1v3h1v-2h1v-1h-1ZM178 323l-1 2h2v-2h-1ZM180 327l1 1v-1h-1ZM177 344l-1-1h-1v1l-1 2v1l3-3ZM145 346l1 1h1v-1l4-14-2-1h-1v1h1l-1 4-2-1v1h1l-1 2-1 1h1l-1 1 1 1v2l-1 1v2l-4-2h-1v1h1l4 1ZM147 330h2l2 1h1v-1l1-5-4-1-1 1-1 5ZM110 321v3h1v1h2v-1h1v-3h-1l-1-1h-1v1h-1ZM138 334l-1-1v1l-1-1h-3v2l-1 1v1h6v-3ZM0-45l-2-10-1-1-1-1h-14l-41 5-27 4-21 2-13-4h-1v-1h-5l-58-4-11 2-5 4h-6l-11-5-5-1-6-5-2 1-3 4-4 1 3 2v2l-1 15 27 3 4 1 3 1 1 1 2 1 1 2 2 1v2l1 2v14l-1 12-1 8v1l1 1 1 1 16 5-4 27 3 2 7 2 13 5h32l1-37 6-1h45l1-1v-1h1l6-1 83-1-1-18-4-5-9-30-2-7ZM446 332l-40-11v2l39 11 1-2ZM193 293l-1 1-1 1-1 1v2h1v1l1 1v-1h2v-1h1v-1h-1v-3h-1v-1ZM293 309l-4 2-1 2 1 1 3-2h2l1-1-1-1v-1h-1ZM293 304l2 1 2-1 4-3h1v-5l-1-1h-1l-1-1h-1l-2 1h-1l-1 1-1 1-1 1h-1v4l1 1 1 1ZM55 297l-2 2 9 1v-2l-7-1Z" fill="#B5DFC0"/><path fill-rule="evenodd" clip-rule="evenodd" d="M193 292v1l1 1v1l1 1v2h1v-1l-1-1v-1l-1-1v-2h-1ZM195 292v2l1 2h1-1v-1h1v-2h-1v-1h-1ZM197 292v1-1ZM196 303h-1v-1h-3 1l-1-1-1-1h1-1v-1 2h-1l1 1v1h1l3 1 1-1Z" fill="#B5DFC0"/><path fill-rule="evenodd" clip-rule="evenodd" d="M191 299h-1v-3h-1v-1h-1l-1-1v4l1 1v1l1 1v1h1v-1l1-1v-1Z" fill="#B5DFC0"/><path fill-rule="evenodd" clip-rule="evenodd" d="m191 295-2-1 1-3h-1v-1l-1 1h1l-1 1v3h1v1h1v-1h1ZM189 290h1l1-4h1v-1h-2l-1 5ZM192 285h-1l1-2-1-1-1 1v1l1 1h1ZM193 283v1l3 1v-1h-1l-1-1h-1ZM196 290h-1v1h3v1h1v-1h-1l-2-1ZM196 303v1l1 1v-1 1h2l1 1h1l1-1-1-1h-2l-2-1h-1ZM203 306l-1 1h1v1l1 1v1h1v2l2-5h-4v-1ZM195 298h-1v1h1v-1ZM195 299l1 1h1v-1h-2ZM480 360h-6l-1 1v2h-1v1h1v1l1 1h4l1-1v-1l1-1v-3ZM287 267l1-3h-1v5l1 1h1v1l1 1h-1v1l-1 1 6 2v1h4l-1-2v-4l1-2 1-1-1-2-2-3v2h-1v1h1v3h-6l-2-1-1-1ZM73 192v1l-1 2 1 1h2v-3h-1l-1-1Z" fill="#B5DFC0"/><path fill-rule="evenodd" clip-rule="evenodd" d="M74 191h-1v1h-1v1l-1 2h1v-3h1v-1h1ZM75 191v1h1v4-4l-1-1Z" fill="#B5DFC0"/><path fill-rule="evenodd" clip-rule="evenodd" d="M71 195v-1l1-1v-1h-2l-1 1h1v1l1 1ZM76 193h1v1l-1 2h1v-1h1l1-1h-1l-1-1h-1ZM522 268v1l3 1v-1l-3-1ZM485 229h-1l-1 1 1 1v1h2l1-1v-1h-1v-1h-1ZM221 345h1l1-2 1-1 1-1v-1l1-1v-1h1v-1h-1v-1h-2v1l-1 1v1l-1 1v2l-1 1v1l-1 1h1ZM216 343v-1h-3v1h3ZM470 209h1l1-4 1-1 4 2 3 1h1l-3-2-4-1h-2l-1 1-1 4ZM433 216l-2 10 1 1 2-10h1l-2-1ZM438 227h-2l2 1v-1ZM438 228l-5-1v1l5 1v-1ZM450 231l-9-3-1 1 10 3v-1ZM470 210v1h1v-1h-1ZM470 212l-1 3v1h1l6 2v-1l-6-2v-3ZM484 229h2v-1h-2v1Z" fill="#B5DFC0"/><path fill-rule="evenodd" clip-rule="evenodd" d="M483 231v1h1v1h1v-1h-1l-1-1ZM455 231l-2-1v2h3l-1-1ZM372 222l1 2v-3l-1 1ZM372 227ZM372 227ZM372 227ZM77 254h1v-1l1-2h-1l-1 2v1ZM82 258h1v1l4 1v-3h-1v1h-1l-2-1-1 1ZM87 259v1h1-1v-1ZM99 276h3v-2h-1v-1h-1v1h-1v2ZM523 348l-1 2h34l-1-1v-2h-5l-27 1ZM510 350h10l1-2h-11v2ZM595 347v2h13v-2h-13ZM658 339l-4 1-4 1-15 3-6 2v2l4-1 10-2 9-2 6-1v-3ZM666 343h3v-3h-4l1 3ZM436 250v2l5 1v-2l-5-1ZM577 170v1l2-2 3 1 2-1h1l1-1v-1l3-2 1-1 7-3h1l2-1h4l2-1 2 1h2l3-7 1-1v-1l1-4 1-1v-4l-1-4-7-5h-39l-1 1-1 1-1 1h-2l-1 8h-3l-2 10v6l8 2h2l3 2 5 3-1 1 1 1 1 1ZM563 351v-3l-1-1-1 1h-2v1l1 2h3ZM564 341h-3v3h2v1h5v-7h-3v3h-1ZM387 251v-1l1-2v-3l-5 1v4l-1 2v2l-1 1v1h1l3 1h1v-4l1-2ZM40 163h-1v1l1 1h1v-1h1-1v-1h-1ZM276 241h-1v1h2v-1h-1ZM119 214l-4 1 1 1 1 4 5-1v-1l-1-2-1-2v-1l-1 1ZM89 199l-1 1h-1v4h3l20-8h1v-1l-1-1-1-1h1l-1-2h-1l-2 1-7 3-10 4ZM109 205l1 2 2-1-1-2-2 1ZM126 186h-1v1h1v-1Z" fill="#B5DFC0"/><path fill-rule="evenodd" clip-rule="evenodd" d="m174-60 1-1h1v1h-2l-2 2-2 1v4l1 2 4 4 1 1h1l1 1-1 3v1l-1 1v6l-1 1v5l1 1h-1v5l-1 1v1l-1 2v7h-1l1 2v1l-2 3v4l1 2 1 1v1l-1 1v5h5v1l1 1 1 2v1l-1 1 1 2 1 2h1v-7h1V7l1-1V3l1-4 1-3v-5l1-2v-3l1-3 1-5v-4l1-3v-1l1-3 1-5 1-1v-6l1-1 1-1v-1l1-1 1-2 10-10 1-2 2-2 1-2 1-3v-1l1-3v-3l1-3v-6l1-6v-4l1-4v-6l1-3v-6l-1-3-1-3-1-1v-1l-1-2-1-1-1-1-1-3v-6l-1-3v-36l1-1v-5l-1-1h-1l-5 1-1 1-4 1-8 3h-2l-2 1v1h-3l-3-1h-2v-1l-1-1v-1h-1l-2-1-2 1-1 2h1v17h1l-1 1 1 1v5l1 1h3v-5h-2v-2h2v1l1 1v4l-1 1-1 1h-2l-1 1v2l-1 2v69l-1 3v15h1v-1h2l1-1Zm3 67V5h1v2l-1 1V7Zm0 2h-1l1-1v1Z" fill="#B2DFF3"/><path fill-rule="evenodd" clip-rule="evenodd" d="m174-60 1-1h1v1h-2l-2 2-2 1v4l1 2 4 4 1 1h1l1 1-1 3v1l-1 1v6l-1 1v5l1 1h-1v5l-1 1v1l-1 2v7h-1l1 2v1l-2 3v4l1 2 1 1v1l-1 1v5h5v1l1 1 1 2v1l-1 1 1 2 1 2h1v-7h1V7l1-1V3l1-4 1-3v-5l1-2v-3l1-3 1-5v-4l1-3v-1l1-3 1-5 1-1v-6l1-1 1-1v-1l1-1 1-2 10-10 1-2 2-2 1-2 1-3v-1l1-3v-3l1-3v-6l1-6v-4l1-4v-6l1-3v-6l-1-3-1-3-1-1v-1l-1-2-1-1-1-1-1-3v-6l-1-3v-36l1-1v-5l-1-1h-1l-5 1-1 1-4 1-8 3h-2l-2 1v1h-3l-3-1h-2v-1l-1-1v-1h-1l-2-1-2 1-1 2h1v17h1l-1 1 1 1v5l1 1h3v-5h-2v-2h2v1l1 1v4l-1 1-1 1h-2l-1 1v2l-1 2v69l-1 3v15h1v-1h2l1-1Zm3 67V5h1v2l-1 1V7Zm0 2h-1l1-1v1Z" fill="#B2DFF3"/><path fill-rule="evenodd" clip-rule="evenodd" d="m174-60 1-1h1v1h-2l-2 2-2 1v4l1 2 4 4 1 1h1l1 1-1 3v1l-1 1v6l-1 1v5l1 1h-1v5l-1 1v1l-1 2v7h-1l1 2v1l-2 3v4l1 2 1 1v1l-1 1v5h5v1l1 1 1 2v1l-1 1 1 2 1 2h1v-7h1V7l1-1V3l1-4 1-3v-5l1-2v-3l1-3 1-5v-4l1-3v-1l1-3 1-5 1-1v-6l1-1 1-1v-1l1-1 1-2 10-10 1-2 2-2 1-2 1-3v-1l1-3v-3l1-3v-6l1-6v-4l1-4v-6l1-3v-6l-1-3-1-3-1-1v-1l-1-2-1-1-1-1-1-3v-6l-1-3v-36l1-1v-5l-1-1h-1l-5 1-1 1-4 1-8 3h-2l-2 1v1h-3l-3-1h-2v-1l-1-1v-1h-1l-2-1-2 1-1 2h1v17h1l-1 1 1 1v5l1 1h3v-5h-2v-2h2v1l1 1v4l-1 1-1 1h-2l-1 1v2l-1 2v69l-1 3v15h1v-1h2l1-1Zm3 67V5h1v2l-1 1V7Zm0 2h-1l1-1v1ZM743 77v-2l4-2v-1h-1V47l-2-6 1-1 1 2 2-1v-3l-2-3v-2l-2-3h-5l-4-5v-5l-8-8-43-12-1-5-4-6-28-15-18-10-1-3 1-2 16-19 1-4-1-5-2-2-43-17-1-1h-4l-1 1v-2l-2-1-7-2h-1l-1-1h-4l-11-2h-3l-5-2-3-1-3-2-2-1-3-1-2-1-2-1-2-2-3-2-2-3-2-5-2-4-1-3-1-2-1-1-1-2-1-2v-1l-1-2-1-2-1-2v-1l-1-1v-1l-2-2v-1l-4-8v-1l-2-1-2-1h-1l-2 1-4-1-2-1h-6l-5-1h-16l-25-1-9 1-3-1-4-1-1-1-2-2-1-1-2-1-4-3h-1v-1h-8v1l-2-1h-21v1l3 2 3 2 1 2-4-2-2-1-2-2h-1l-1-2h-25l-1 1h-3l-6 2h-2l-2 1-4 1-3 1-2 1h-3l-2 1-3 2-7 4-3 3h-2l-3 1h-2l-1 1h-6l-3 1h-3l-3-1-5-3-18-12-2-1h-2l-1 1-5 4-3 2-1 1-1 1v1l-1 2 1 1 1 4 2 11v2l1 5 1 2 1 2 8 4 2 1 3 1 1 1 1 1 3 2h5l3-2 6-3 3-2 4-1 7-3 6-3 4 1 3 2 3 1 2 2 3 2 4 3 3 4 3 4 1 1h4l1 2 2 11 3 14 3 8 1 2 2 4 3 2 1 2 2 2 2 3h1l4 5 6 6v1l2 1 1 2 1 1 1 2 4 3 2 2h2l2 1 1 1h1l1 1 2 1h1l3 2h1l2 1h1l1-1h3v-1h3l1-1h5l3-1 2-1v1l2-1 5-2h2l6-1 3-2 4-1 4-2 3-2 10-5 4-1 3-1h8l14 3 6 1 2 1 4 1 8 2 2 1 1 1 3 1 3 1 1 1 1 1 1 1 3 3 2 3 1 3v3l1 3 1 1v5l-1 3-1 4-3 5-2 2-2 3v4l1 1 1 1 2 1 2 1h1l4-1 1-1 2 1 1 1 1 1 2 2 3 2 3 2 1 2 4 3 2 3 3 5 1 2v2l1 3 1 3 2 2 2 1 3 2 1 1 1 1 4 3 1 2 1 1 1 1v2l2 3 1 5v3l-1 2-2 4-1 2v1l1 2 1 1 2 1h5l3-1-1 2 1 9-2 3 2 2h1l12 3h2l2 3v12l2 1v-2h1l3 2 4 1 3 3 3 2 5 8 17-2h27l5-1 6-1h3l4 2 20-9 3-2 3-1h3l3-1 14-8 1-2 1-10-2-9v-5l-1-1ZM598 2h-1v-20l-4-3 1-1 3 2v-9l1 31Zm-1 72V3h1l-1 71Zm123 1 12-1 4 3-15-1-1-1Zm-11-1 6 1v1h-7l1-2Zm-36 0h35l-1 2-34-1v-1Zm-22-1 21 1v1l-20-1-1-1Zm-37 1-7-2-5-1-4 1v-2l4-1h5l2 2 5 3Zm3 35V75l-6-4 5 1 3 1v2l-2-1 1 35h-1Zm3-36 30 1h-28l-1 1h-1v-2Z" fill="#B2DFF3"/><path fill-rule="evenodd" clip-rule="evenodd" d="M743 77v-2l4-2v-1h-1V47l-2-6 1-1 1 2 2-1v-3l-2-3v-2l-2-3h-5l-4-5v-5l-8-8-43-12-1-5-4-6-28-15-18-10-1-3 1-2 16-19 1-4-1-5-2-2-43-17-1-1h-4l-1 1v-2l-2-1-7-2h-1l-1-1h-4l-11-2h-3l-5-2-3-1-3-2-2-1-3-1-2-1-2-1-2-2-3-2-2-3-2-5-2-4-1-3-1-2-1-1-1-2-1-2v-1l-1-2-1-2-1-2v-1l-1-1v-1l-2-2v-1l-4-8v-1l-2-1-2-1h-1l-2 1-4-1-2-1h-6l-5-1h-16l-25-1-9 1-3-1-4-1-1-1-2-2-1-1-2-1-4-3h-1v-1h-8v1l-2-1h-21v1l3 2 3 2 1 2-4-2-2-1-2-2h-1l-1-2h-25l-1 1h-3l-6 2h-2l-2 1-4 1-3 1-2 1h-3l-2 1-3 2-7 4-3 3h-2l-3 1h-2l-1 1h-6l-3 1h-3l-3-1-5-3-18-12-2-1h-2l-1 1-5 4-3 2-1 1-1 1v1l-1 2 1 1 1 4 2 11v2l1 5 1 2 1 2 8 4 2 1 3 1 1 1 1 1 3 2h5l3-2 6-3 3-2 4-1 7-3 6-3 4 1 3 2 3 1 2 2 3 2 4 3 3 4 3 4 1 1h4l1 2 2 11 3 14 3 8 1 2 2 4 3 2 1 2 2 2 2 3h1l4 5 6 6v1l2 1 1 2 1 1 1 2 4 3 2 2h2l2 1 1 1h1l1 1 2 1h1l3 2h1l2 1h1l1-1h3v-1h3l1-1h5l3-1 2-1v1l2-1 5-2h2l6-1 3-2 4-1 4-2 3-2 10-5 4-1 3-1h8l14 3 6 1 2 1 4 1 8 2 2 1 1 1 3 1 3 1 1 1 1 1 1 1 3 3 2 3 1 3v3l1 3 1 1v5l-1 3-1 4-3 5-2 2-2 3v4l1 1 1 1 2 1 2 1h1l4-1 1-1 2 1 1 1 1 1 2 2 3 2 3 2 1 2 4 3 2 3 3 5 1 2v2l1 3 1 3 2 2 2 1 3 2 1 1 1 1 4 3 1 2 1 1 1 1v2l2 3 1 5v3l-1 2-2 4-1 2v1l1 2 1 1 2 1h5l3-1-1 2 1 9-2 3 2 2h1l12 3h2l2 3v12l2 1v-2h1l3 2 4 1 3 3 3 2 5 8 17-2h27l5-1 6-1h3l4 2 20-9 3-2 3-1h3l3-1 14-8 1-2 1-10-2-9v-5l-1-1ZM598 2h-1v-20l-4-3 1-1 3 2v-9l1 31Zm-1 72V3h1l-1 71Zm123 1 12-1 4 3-15-1-1-1Zm-11-1 6 1v1h-7l1-2Zm-36 0h35l-1 2-34-1v-1Zm-22-1 21 1v1l-20-1-1-1Zm-37 1-7-2-5-1-4 1v-2l4-1h5l2 2 5 3Zm3 35V75l-6-4 5 1 3 1v2l-2-1 1 35h-1Zm3-36 30 1h-28l-1 1h-1v-2Z" fill="#B2DFF3"/><path fill-rule="evenodd" clip-rule="evenodd" d="M743 77v-2l4-2v-1h-1V47l-2-6 1-1 1 2 2-1v-3l-2-3v-2l-2-3h-5l-4-5v-5l-8-8-43-12-1-5-4-6-28-15-18-10-1-3 1-2 16-19 1-4-1-5-2-2-43-17-1-1h-4l-1 1v-2l-2-1-7-2h-1l-1-1h-4l-11-2h-3l-5-2-3-1-3-2-2-1-3-1-2-1-2-1-2-2-3-2-2-3-2-5-2-4-1-3-1-2-1-1-1-2-1-2v-1l-1-2-1-2-1-2v-1l-1-1v-1l-2-2v-1l-4-8v-1l-2-1-2-1h-1l-2 1-4-1-2-1h-6l-5-1h-16l-25-1-9 1-3-1-4-1-1-1-2-2-1-1-2-1-4-3h-1v-1h-8v1l-2-1h-21v1l3 2 3 2 1 2-4-2-2-1-2-2h-1l-1-2h-25l-1 1h-3l-6 2h-2l-2 1-4 1-3 1-2 1h-3l-2 1-3 2-7 4-3 3h-2l-3 1h-2l-1 1h-6l-3 1h-3l-3-1-5-3-18-12-2-1h-2l-1 1-5 4-3 2-1 1-1 1v1l-1 2 1 1 1 4 2 11v2l1 5 1 2 1 2 8 4 2 1 3 1 1 1 1 1 3 2h5l3-2 6-3 3-2 4-1 7-3 6-3 4 1 3 2 3 1 2 2 3 2 4 3 3 4 3 4 1 1h4l1 2 2 11 3 14 3 8 1 2 2 4 3 2 1 2 2 2 2 3h1l4 5 6 6v1l2 1 1 2 1 1 1 2 4 3 2 2h2l2 1 1 1h1l1 1 2 1h1l3 2h1l2 1h1l1-1h3v-1h3l1-1h5l3-1 2-1v1l2-1 5-2h2l6-1 3-2 4-1 4-2 3-2 10-5 4-1 3-1h8l14 3 6 1 2 1 4 1 8 2 2 1 1 1 3 1 3 1 1 1 1 1 1 1 3 3 2 3 1 3v3l1 3 1 1v5l-1 3-1 4-3 5-2 2-2 3v4l1 1 1 1 2 1 2 1h1l4-1 1-1 2 1 1 1 1 1 2 2 3 2 3 2 1 2 4 3 2 3 3 5 1 2v2l1 3 1 3 2 2 2 1 3 2 1 1 1 1 4 3 1 2 1 1 1 1v2l2 3 1 5v3l-1 2-2 4-1 2v1l1 2 1 1 2 1h5l3-1-1 2 1 9-2 3 2 2h1l12 3h2l2 3v12l2 1v-2h1l3 2 4 1 3 3 3 2 5 8 17-2h27l5-1 6-1h3l4 2 20-9 3-2 3-1h3l3-1 14-8 1-2 1-10-2-9v-5l-1-1ZM598 2h-1v-20l-4-3 1-1 3 2v-9l1 31Zm-1 72V3h1l-1 71Zm123 1 12-1 4 3-15-1-1-1Zm-11-1 6 1v1h-7l1-2Zm-36 0h35l-1 2-34-1v-1Zm-22-1 21 1v1l-20-1-1-1Zm-37 1-7-2-5-1-4 1v-2l4-1h5l2 2 5 3Zm3 35V75l-6-4 5 1 3 1v2l-2-1 1 35h-1Zm3-36 30 1h-28l-1 1h-1v-2Z" fill="#B2DFF3"/><path fill-rule="evenodd" clip-rule="evenodd" d="M743 77v-2l4-2v-1h-1V47l-2-6 1-1 1 2 2-1v-3l-2-3v-2l-2-3h-5l-4-5v-5l-8-8-43-12-1-5-4-6-28-15-18-10-1-3 1-2 16-19 1-4-1-5-2-2-43-17-1-1h-4l-1 1v-2l-2-1-7-2h-1l-1-1h-4l-11-2h-3l-5-2-3-1-3-2-2-1-3-1-2-1-2-1-2-2-3-2-2-3-2-5-2-4-1-3-1-2-1-1-1-2-1-2v-1l-1-2-1-2-1-2v-1l-1-1v-1l-2-2v-1l-4-8v-1l-2-1-2-1h-1l-2 1-4-1-2-1h-6l-5-1h-16l-25-1-9 1-3-1-4-1-1-1-2-2-1-1-2-1-4-3h-1v-1h-8v1l-2-1h-21v1l3 2 3 2 1 2-4-2-2-1-2-2h-1l-1-2h-25l-1 1h-3l-6 2h-2l-2 1-4 1-3 1-2 1h-3l-2 1-3 2-7 4-3 3h-2l-3 1h-2l-1 1h-6l-3 1h-3l-3-1-5-3-18-12-2-1h-2l-1 1-5 4-3 2-1 1-1 1v1l-1 2 1 1 1 4 2 11v2l1 5 1 2 1 2 8 4 2 1 3 1 1 1 1 1 3 2h5l3-2 6-3 3-2 4-1 7-3 6-3 4 1 3 2 3 1 2 2 3 2 4 3 3 4 3 4 1 1h4l1 2 2 11 3 14 3 8 1 2 2 4 3 2 1 2 2 2 2 3h1l4 5 6 6v1l2 1 1 2 1 1 1 2 4 3 2 2h2l2 1 1 1h1l1 1 2 1h1l3 2h1l2 1h1l1-1h3v-1h3l1-1h5l3-1 2-1v1l2-1 5-2h2l6-1 3-2 4-1 4-2 3-2 10-5 4-1 3-1h8l14 3 6 1 2 1 4 1 8 2 2 1 1 1 3 1 3 1 1 1 1 1 1 1 3 3 2 3 1 3v3l1 3 1 1v5l-1 3-1 4-3 5-2 2-2 3v4l1 1 1 1 2 1 2 1h1l4-1 1-1 2 1 1 1 1 1 2 2 3 2 3 2 1 2 4 3 2 3 3 5 1 2v2l1 3 1 3 2 2 2 1 3 2 1 1 1 1 4 3 1 2 1 1 1 1v2l2 3 1 5v3l-1 2-2 4-1 2v1l1 2 1 1 2 1h5l3-1-1 2 1 9-2 3 2 2h1l12 3h2l2 3v12l2 1v-2h1l3 2 4 1 3 3 3 2 5 8 17-2h27l5-1 6-1h3l4 2 20-9 3-2 3-1h3l3-1 14-8 1-2 1-10-2-9v-5l-1-1ZM598 2h-1v-20l-4-3 1-1 3 2v-9l1 31Zm-1 72V3h1l-1 71Zm123 1 12-1 4 3-15-1-1-1Zm-11-1 6 1v1h-7l1-2Zm-36 0h35l-1 2-34-1v-1Zm-22-1 21 1v1l-20-1-1-1Zm-37 1-7-2-5-1-4 1v-2l4-1h5l2 2 5 3Zm3 35V75l-6-4 5 1 3 1v2l-2-1 1 35h-1Zm3-36 30 1h-28l-1 1h-1v-2Z" fill="#B2DFF3"/><path fill-rule="evenodd" clip-rule="evenodd" d="M743 77v-2l4-2v-1h-1V47l-2-6 1-1 1 2 2-1v-3l-2-3v-2l-2-3h-5l-4-5v-5l-8-8-43-12-1-5-4-6-28-15-18-10-1-3 1-2 16-19 1-4-1-5-2-2-43-17-1-1h-4l-1 1v-2l-2-1-7-2h-1l-1-1h-4l-11-2h-3l-5-2-3-1-3-2-2-1-3-1-2-1-2-1-2-2-3-2-2-3-2-5-2-4-1-3-1-2-1-1-1-2-1-2v-1l-1-2-1-2-1-2v-1l-1-1v-1l-2-2v-1l-4-8v-1l-2-1-2-1h-1l-2 1-4-1-2-1h-6l-5-1h-16l-25-1-9 1-3-1-4-1-1-1-2-2-1-1-2-1-4-3h-1v-1h-8v1l-2-1h-21v1l3 2 3 2 1 2-4-2-2-1-2-2h-1l-1-2h-25l-1 1h-3l-6 2h-2l-2 1-4 1-3 1-2 1h-3l-2 1-3 2-7 4-3 3h-2l-3 1h-2l-1 1h-6l-3 1h-3l-3-1-5-3-18-12-2-1h-2l-1 1-5 4-3 2-1 1-1 1v1l-1 2 1 1 1 4 2 11v2l1 5 1 2 1 2 8 4 2 1 3 1 1 1 1 1 3 2h5l3-2 6-3 3-2 4-1 7-3 6-3 4 1 3 2 3 1 2 2 3 2 4 3 3 4 3 4 1 1h4l1 2 2 11 3 14 3 8 1 2 2 4 3 2 1 2 2 2 2 3h1l4 5 6 6v1l2 1 1 2 1 1 1 2 4 3 2 2h2l2 1 1 1h1l1 1 2 1h1l3 2h1l2 1h1l1-1h3v-1h3l1-1h5l3-1 2-1v1l2-1 5-2h2l6-1 3-2 4-1 4-2 3-2 10-5 4-1 3-1h8l14 3 6 1 2 1 4 1 8 2 2 1 1 1 3 1 3 1 1 1 1 1 1 1 3 3 2 3 1 3v3l1 3 1 1v5l-1 3-1 4-3 5-2 2-2 3v4l1 1 1 1 2 1 2 1h1l4-1 1-1 2 1 1 1 1 1 2 2 3 2 3 2 1 2 4 3 2 3 3 5 1 2v2l1 3 1 3 2 2 2 1 3 2 1 1 1 1 4 3 1 2 1 1 1 1v2l2 3 1 5v3l-1 2-2 4-1 2v1l1 2 1 1 2 1h5l3-1-1 2 1 9-2 3 2 2h1l12 3h2l2 3v12l2 1v-2h1l3 2 4 1 3 3 3 2 5 8 17-2h27l5-1 6-1h3l4 2 20-9 3-2 3-1h3l3-1 14-8 1-2 1-10-2-9v-5l-1-1ZM598 2h-1v-20l-4-3 1-1 3 2v-9l1 31Zm-1 72V3h1l-1 71Zm123 1 12-1 4 3-15-1-1-1Zm-11-1 6 1v1h-7l1-2Zm-36 0h35l-1 2-34-1v-1Zm-22-1 21 1v1l-20-1-1-1Zm-37 1-7-2-5-1-4 1v-2l4-1h5l2 2 5 3Zm3 35V75l-6-4 5 1 3 1v2l-2-1 1 35h-1Zm3-36 30 1h-28l-1 1h-1v-2Z" fill="#B2DFF3"/><path fill-rule="evenodd" clip-rule="evenodd" d="M743 77v-2l4-2v-1h-1V47l-2-6 1-1 1 2 2-1v-3l-2-3v-2l-2-3h-5l-4-5v-5l-8-8-43-12-1-5-4-6-28-15-18-10-1-3 1-2 16-19 1-4-1-5-2-2-43-17-1-1h-4l-1 1v-2l-2-1-7-2h-1l-1-1h-4l-11-2h-3l-5-2-3-1-3-2-2-1-3-1-2-1-2-1-2-2-3-2-2-3-2-5-2-4-1-3-1-2-1-1-1-2-1-2v-1l-1-2-1-2-1-2v-1l-1-1v-1l-2-2v-1l-4-8v-1l-2-1-2-1h-1l-2 1-4-1-2-1h-6l-5-1h-16l-25-1-9 1-3-1-4-1-1-1-2-2-1-1-2-1-4-3h-1v-1h-8v1l-2-1h-21v1l3 2 3 2 1 2-4-2-2-1-2-2h-1l-1-2h-25l-1 1h-3l-6 2h-2l-2 1-4 1-3 1-2 1h-3l-2 1-3 2-7 4-3 3h-2l-3 1h-2l-1 1h-6l-3 1h-3l-3-1-5-3-18-12-2-1h-2l-1 1-5 4-3 2-1 1-1 1v1l-1 2 1 1 1 4 2 11v2l1 5 1 2 1 2 8 4 2 1 3 1 1 1 1 1 3 2h5l3-2 6-3 3-2 4-1 7-3 6-3 4 1 3 2 3 1 2 2 3 2 4 3 3 4 3 4 1 1h4l1 2 2 11 3 14 3 8 1 2 2 4 3 2 1 2 2 2 2 3h1l4 5 6 6v1l2 1 1 2 1 1 1 2 4 3 2 2h2l2 1 1 1h1l1 1 2 1h1l3 2h1l2 1h1l1-1h3v-1h3l1-1h5l3-1 2-1v1l2-1 5-2h2l6-1 3-2 4-1 4-2 3-2 10-5 4-1 3-1h8l14 3 6 1 2 1 4 1 8 2 2 1 1 1 3 1 3 1 1 1 1 1 1 1 3 3 2 3 1 3v3l1 3 1 1v5l-1 3-1 4-3 5-2 2-2 3v4l1 1 1 1 2 1 2 1h1l4-1 1-1 2 1 1 1 1 1 2 2 3 2 3 2 1 2 4 3 2 3 3 5 1 2v2l1 3 1 3 2 2 2 1 3 2 1 1 1 1 4 3 1 2 1 1 1 1v2l2 3 1 5v3l-1 2-2 4-1 2v1l1 2 1 1 2 1h5l3-1-1 2 1 9-2 3 2 2h1l12 3h2l2 3v12l2 1v-2h1l3 2 4 1 3 3 3 2 5 8 17-2h27l5-1 6-1h3l4 2 20-9 3-2 3-1h3l3-1 14-8 1-2 1-10-2-9v-5l-1-1ZM598 2h-1v-20l-4-3 1-1 3 2v-9l1 31Zm-1 72V3h1l-1 71Zm123 1 12-1 4 3-15-1-1-1Zm-11-1 6 1v1h-7l1-2Zm-36 0h35l-1 2-34-1v-1Zm-22-1 21 1v1l-20-1-1-1Zm-37 1-7-2-5-1-4 1v-2l4-1h5l2 2 5 3Zm3 35V75l-6-4 5 1 3 1v2l-2-1 1 35h-1Zm3-36 30 1h-28l-1 1h-1v-2Z" fill="#B2DFF3"/><path fill-rule="evenodd" clip-rule="evenodd" d="M743 77v-2l4-2v-1h-1V47l-2-6 1-1 1 2 2-1v-3l-2-3v-2l-2-3h-5l-4-5v-5l-8-8-43-12-1-5-4-6-28-15-18-10-1-3 1-2 16-19 1-4-1-5-2-2-43-17-1-1h-4l-1 1v-2l-2-1-7-2h-1l-1-1h-4l-11-2h-3l-5-2-3-1-3-2-2-1-3-1-2-1-2-1-2-2-3-2-2-3-2-5-2-4-1-3-1-2-1-1-1-2-1-2v-1l-1-2-1-2-1-2v-1l-1-1v-1l-2-2v-1l-4-8v-1l-2-1-2-1h-1l-2 1-4-1-2-1h-6l-5-1h-16l-25-1-9 1-3-1-4-1-1-1-2-2-1-1-2-1-4-3h-1v-1h-8v1l-2-1h-21v1l3 2 3 2 1 2-4-2-2-1-2-2h-1l-1-2h-25l-1 1h-3l-6 2h-2l-2 1-4 1-3 1-2 1h-3l-2 1-3 2-7 4-3 3h-2l-3 1h-2l-1 1h-6l-3 1h-3l-3-1-5-3-18-12-2-1h-2l-1 1-5 4-3 2-1 1-1 1v1l-1 2 1 1 1 4 2 11v2l1 5 1 2 1 2 8 4 2 1 3 1 1 1 1 1 3 2h5l3-2 6-3 3-2 4-1 7-3 6-3 4 1 3 2 3 1 2 2 3 2 4 3 3 4 3 4 1 1h4l1 2 2 11 3 14 3 8 1 2 2 4 3 2 1 2 2 2 2 3h1l4 5 6 6v1l2 1 1 2 1 1 1 2 4 3 2 2h2l2 1 1 1h1l1 1 2 1h1l3 2h1l2 1h1l1-1h3v-1h3l1-1h5l3-1 2-1v1l2-1 5-2h2l6-1 3-2 4-1 4-2 3-2 10-5 4-1 3-1h8l14 3 6 1 2 1 4 1 8 2 2 1 1 1 3 1 3 1 1 1 1 1 1 1 3 3 2 3 1 3v3l1 3 1 1v5l-1 3-1 4-3 5-2 2-2 3v4l1 1 1 1 2 1 2 1h1l4-1 1-1 2 1 1 1 1 1 2 2 3 2 3 2 1 2 4 3 2 3 3 5 1 2v2l1 3 1 3 2 2 2 1 3 2 1 1 1 1 4 3 1 2 1 1 1 1v2l2 3 1 5v3l-1 2-2 4-1 2v1l1 2 1 1 2 1h5l3-1-1 2 1 9-2 3 2 2h1l12 3h2l2 3v12l2 1v-2h1l3 2 4 1 3 3 3 2 5 8 17-2h27l5-1 6-1h3l4 2 20-9 3-2 3-1h3l3-1 14-8 1-2 1-10-2-9v-5l-1-1ZM598 2h-1v-20l-4-3 1-1 3 2v-9l1 31Zm-1 72V3h1l-1 71Zm123 1 12-1 4 3-15-1-1-1Zm-11-1 6 1v1h-7l1-2Zm-36 0h35l-1 2-34-1v-1Zm-22-1 21 1v1l-20-1-1-1Zm-37 1-7-2-5-1-4 1v-2l4-1h5l2 2 5 3Zm3 35V75l-6-4 5 1 3 1v2l-2-1 1 35h-1Zm3-36 30 1h-28l-1 1h-1v-2Z" fill="#B2DFF3"/><path fill-rule="evenodd" clip-rule="evenodd" d="M743 77v-2l4-2v-1h-1V47l-2-6 1-1 1 2 2-1v-3l-2-3v-2l-2-3h-5l-4-5v-5l-8-8-43-12-1-5-4-6-28-15-18-10-1-3 1-2 16-19 1-4-1-5-2-2-43-17-1-1h-4l-1 1v-2l-2-1-7-2h-1l-1-1h-4l-11-2h-3l-5-2-3-1-3-2-2-1-3-1-2-1-2-1-2-2-3-2-2-3-2-5-2-4-1-3-1-2-1-1-1-2-1-2v-1l-1-2-1-2-1-2v-1l-1-1v-1l-2-2v-1l-4-8v-1l-2-1-2-1h-1l-2 1-4-1-2-1h-6l-5-1h-16l-25-1-9 1-3-1-4-1-1-1-2-2-1-1-2-1-4-3h-1v-1h-8v1l-2-1h-21v1l3 2 3 2 1 2-4-2-2-1-2-2h-1l-1-2h-25l-1 1h-3l-6 2h-2l-2 1-4 1-3 1-2 1h-3l-2 1-3 2-7 4-3 3h-2l-3 1h-2l-1 1h-6l-3 1h-3l-3-1-5-3-18-12-2-1h-2l-1 1-5 4-3 2-1 1-1 1v1l-1 2 1 1 1 4 2 11v2l1 5 1 2 1 2 8 4 2 1 3 1 1 1 1 1 3 2h5l3-2 6-3 3-2 4-1 7-3 6-3 4 1 3 2 3 1 2 2 3 2 4 3 3 4 3 4 1 1h4l1 2 2 11 3 14 3 8 1 2 2 4 3 2 1 2 2 2 2 3h1l4 5 6 6v1l2 1 1 2 1 1 1 2 4 3 2 2h2l2 1 1 1h1l1 1 2 1h1l3 2h1l2 1h1l1-1h3v-1h3l1-1h5l3-1 2-1v1l2-1 5-2h2l6-1 3-2 4-1 4-2 3-2 10-5 4-1 3-1h8l14 3 6 1 2 1 4 1 8 2 2 1 1 1 3 1 3 1 1 1 1 1 1 1 3 3 2 3 1 3v3l1 3 1 1v5l-1 3-1 4-3 5-2 2-2 3v4l1 1 1 1 2 1 2 1h1l4-1 1-1 2 1 1 1 1 1 2 2 3 2 3 2 1 2 4 3 2 3 3 5 1 2v2l1 3 1 3 2 2 2 1 3 2 1 1 1 1 4 3 1 2 1 1 1 1v2l2 3 1 5v3l-1 2-2 4-1 2v1l1 2 1 1 2 1h5l3-1-1 2 1 9-2 3 2 2h1l12 3h2l2 3v12l2 1v-2h1l3 2 4 1 3 3 3 2 5 8 17-2h27l5-1 6-1h3l4 2 20-9 3-2 3-1h3l3-1 14-8 1-2 1-10-2-9v-5l-1-1ZM598 2h-1v-20l-4-3 1-1 3 2v-9l1 31Zm-1 72V3h1l-1 71Zm123 1 12-1 4 3-15-1-1-1Zm-11-1 6 1v1h-7l1-2Zm-36 0h35l-1 2-34-1v-1Zm-22-1 21 1v1l-20-1-1-1Zm-37 1-7-2-5-1-4 1v-2l4-1h5l2 2 5 3Zm3 35V75l-6-4 5 1 3 1v2l-2-1 1 35h-1Zm3-36 30 1h-28l-1 1h-1v-2Z" fill="#B2DFF3"/><path fill-rule="evenodd" clip-rule="evenodd" d="M743 77v-2l4-2v-1h-1V47l-2-6 1-1 1 2 2-1v-3l-2-3v-2l-2-3h-5l-4-5v-5l-8-8-43-12-1-5-4-6-28-15-18-10-1-3 1-2 16-19 1-4-1-5-2-2-43-17-1-1h-4l-1 1v-2l-2-1-7-2h-1l-1-1h-4l-11-2h-3l-5-2-3-1-3-2-2-1-3-1-2-1-2-1-2-2-3-2-2-3-2-5-2-4-1-3-1-2-1-1-1-2-1-2v-1l-1-2-1-2-1-2v-1l-1-1v-1l-2-2v-1l-4-8v-1l-2-1-2-1h-1l-2 1-4-1-2-1h-6l-5-1h-16l-25-1-9 1-3-1-4-1-1-1-2-2-1-1-2-1-4-3h-1v-1h-8v1l-2-1h-21v1l3 2 3 2 1 2-4-2-2-1-2-2h-1l-1-2h-25l-1 1h-3l-6 2h-2l-2 1-4 1-3 1-2 1h-3l-2 1-3 2-7 4-3 3h-2l-3 1h-2l-1 1h-6l-3 1h-3l-3-1-5-3-18-12-2-1h-2l-1 1-5 4-3 2-1 1-1 1v1l-1 2 1 1 1 4 2 11v2l1 5 1 2 1 2 8 4 2 1 3 1 1 1 1 1 3 2h5l3-2 6-3 3-2 4-1 7-3 6-3 4 1 3 2 3 1 2 2 3 2 4 3 3 4 3 4 1 1h4l1 2 2 11 3 14 3 8 1 2 2 4 3 2 1 2 2 2 2 3h1l4 5 6 6v1l2 1 1 2 1 1 1 2 4 3 2 2h2l2 1 1 1h1l1 1 2 1h1l3 2h1l2 1h1l1-1h3v-1h3l1-1h5l3-1 2-1v1l2-1 5-2h2l6-1 3-2 4-1 4-2 3-2 10-5 4-1 3-1h8l14 3 6 1 2 1 4 1 8 2 2 1 1 1 3 1 3 1 1 1 1 1 1 1 3 3 2 3 1 3v3l1 3 1 1v5l-1 3-1 4-3 5-2 2-2 3v4l1 1 1 1 2 1 2 1h1l4-1 1-1 2 1 1 1 1 1 2 2 3 2 3 2 1 2 4 3 2 3 3 5 1 2v2l1 3 1 3 2 2 2 1 3 2 1 1 1 1 4 3 1 2 1 1 1 1v2l2 3 1 5v3l-1 2-2 4-1 2v1l1 2 1 1 2 1h5l3-1-1 2 1 9-2 3 2 2h1l12 3h2l2 3v12l2 1v-2h1l3 2 4 1 3 3 3 2 5 8 17-2h27l5-1 6-1h3l4 2 20-9 3-2 3-1h3l3-1 14-8 1-2 1-10-2-9v-5l-1-1ZM598 2h-1v-20l-4-3 1-1 3 2v-9l1 31Zm-1 72V3h1l-1 71Zm123 1 12-1 4 3-15-1-1-1Zm-11-1 6 1v1h-7l1-2Zm-36 0h35l-1 2-34-1v-1Zm-22-1 21 1v1l-20-1-1-1Zm-37 1-7-2-5-1-4 1v-2l4-1h5l2 2 5 3Zm3 35V75l-6-4 5 1 3 1v2l-2-1 1 35h-1Zm3-36 30 1h-28l-1 1h-1v-2Z" fill="#B2DFF3"/><path fill-rule="evenodd" clip-rule="evenodd" d="M743 77v-2l4-2v-1h-1V47l-2-6 1-1 1 2 2-1v-3l-2-3v-2l-2-3h-5l-4-5v-5l-8-8-43-12-1-5-4-6-28-15-18-10-1-3 1-2 16-19 1-4-1-5-2-2-43-17-1-1h-4l-1 1v-2l-2-1-7-2h-1l-1-1h-4l-11-2h-3l-5-2-3-1-3-2-2-1-3-1-2-1-2-1-2-2-3-2-2-3-2-5-2-4-1-3-1-2-1-1-1-2-1-2v-1l-1-2-1-2-1-2v-1l-1-1v-1l-2-2v-1l-4-8v-1l-2-1-2-1h-1l-2 1-4-1-2-1h-6l-5-1h-16l-25-1-9 1-3-1-4-1-1-1-2-2-1-1-2-1-4-3h-1v-1h-8v1l-2-1h-21v1l3 2 3 2 1 2-4-2-2-1-2-2h-1l-1-2h-25l-1 1h-3l-6 2h-2l-2 1-4 1-3 1-2 1h-3l-2 1-3 2-7 4-3 3h-2l-3 1h-2l-1 1h-6l-3 1h-3l-3-1-5-3-18-12-2-1h-2l-1 1-5 4-3 2-1 1-1 1v1l-1 2 1 1 1 4 2 11v2l1 5 1 2 1 2 8 4 2 1 3 1 1 1 1 1 3 2h5l3-2 6-3 3-2 4-1 7-3 6-3 4 1 3 2 3 1 2 2 3 2 4 3 3 4 3 4 1 1h4l1 2 2 11 3 14 3 8 1 2 2 4 3 2 1 2 2 2 2 3h1l4 5 6 6v1l2 1 1 2 1 1 1 2 4 3 2 2h2l2 1 1 1h1l1 1 2 1h1l3 2h1l2 1h1l1-1h3v-1h3l1-1h5l3-1 2-1v1l2-1 5-2h2l6-1 3-2 4-1 4-2 3-2 10-5 4-1 3-1h8l14 3 6 1 2 1 4 1 8 2 2 1 1 1 3 1 3 1 1 1 1 1 1 1 3 3 2 3 1 3v3l1 3 1 1v5l-1 3-1 4-3 5-2 2-2 3v4l1 1 1 1 2 1 2 1h1l4-1 1-1 2 1 1 1 1 1 2 2 3 2 3 2 1 2 4 3 2 3 3 5 1 2v2l1 3 1 3 2 2 2 1 3 2 1 1 1 1 4 3 1 2 1 1 1 1v2l2 3 1 5v3l-1 2-2 4-1 2v1l1 2 1 1 2 1h5l3-1-1 2 1 9-2 3 2 2h1l12 3h2l2 3v12l2 1v-2h1l3 2 4 1 3 3 3 2 5 8 17-2h27l5-1 6-1h3l4 2 20-9 3-2 3-1h3l3-1 14-8 1-2 1-10-2-9v-5l-1-1ZM598 2h-1v-20l-4-3 1-1 3 2v-9l1 31Zm-1 72V3h1l-1 71Zm123 1 12-1 4 3-15-1-1-1Zm-11-1 6 1v1h-7l1-2Zm-36 0h35l-1 2-34-1v-1Zm-22-1 21 1v1l-20-1-1-1Zm-37 1-7-2-5-1-4 1v-2l4-1h5l2 2 5 3Zm3 35V75l-6-4 5 1 3 1v2l-2-1 1 35h-1Zm3-36 30 1h-28l-1 1h-1v-2ZM638 138v13l2 1 53-1v-4l-2-2v-2h2v-2l-1-2h-35l-19-1ZM701 138v9h2l5-1 2 1 5 1 3 2 6 1 6-1h5l7-1 2-2v-7l-2-2-3-2h-12l-3-1h-13l-4 1-5 1h-1v1Z" fill="#B2DFF3"/><path fill-rule="evenodd" clip-rule="evenodd" d="m211-131 1 3 1 1 1 3v1h1v1l1 2 1 1 1 3v4l-1 6v2l-1 2v10l-1 1v5l-1 4-1 7v5l-1 1v1l-1 2-1 2-1 1v1l-1 1v1h-1l-3 3v1l-2 2h-1v1l-1 1-1 1-2 2-1 1v1h-1v1l-1 1v2l-1 2v4l-1 1v2l-1 1 1 2-1 1v2l-1 3v3l-1 1v4l-1 2v2l-2 8v2l-2 9-1 3v5l-1 2v7l-1 4v3l2 2 1 2 1 1h1v1h16l8-3h2l3-1 6-2 3-1 4-1 4-1 2 1h6l10 1 4 1 4 1 13 1 4 1 8 1h13l1 1h3l1-1v-1l1-2v-2l1-2v-1l1-2v-1l1-2 1-3 2-3 1-1 1-2 1-1 3-5 1-1 1-1 2-3 2-3 2-3 2-3v-1l1-2 2-1 1-1h-1l1-1 1-1 3-5 1-1v-1l1-1 3-4v-1l1-1 5-7 4-7 3-3 1-1 1-1-1-1h1l1-1 1-1 3-3v-2h-1l-1-2-1-1-1-1-2-2-1-3-1-2-1-4v-1l-1-1-1-6-3-10v-3l-2-4-1-4-1-3-1-2-1-3-3-3h-1l-2-1h-3l-3 2-4 2-4 4-2 1h-2l-4 3-4 1-4 1h-11l-4-1-3-1-6-3h-2v-1l-1-1h-2l-1-1h-1l-1-2-4-2-1-1-3-4-1-2-3 1h-7l-3-2h-1l-2-2v-1l-1-1-3-2-1-1-5-5-1-1v-1h-2v-1h-1l-1-1-2-3-2-2-2-1-3-3-3-1-3-1h-1l-1-1h-1v-1h-1v13l1 2v1ZM490 47l-1 1-3 3-1 2-1 1-2 2-1 1-1 1-1 2h-1v1l-1 1-1 1-2 2-1 1-1 1-2 3-1 1-5 5-1 2-1 2-2 4-1 1 1 3v1l1 2 1 3v1l1 1 4 3 2 2 2 1h1l11 4h3l3 1 4 1 8 2h5l2 1h3l4 1h1-4l-2-1h-4l-7-1-4-1-8-2h-2v-1l-5-1h-4l-4-2h-2l-2-1-2-2-2-2-2-3-1-1-1-6-1-3 2-5v-1h-1l-1 1-1 2v1l1 3 2 11 2 4 1 2 1 1h1v1l3 1 3 1 9 3h2l3 1v-1l1 1h1l8 1h1l2 1h4l5 1 3 1h2l3 1 4 1h4v1l1-1v1h5l2 1h2l2 1h4l2 1 10 1 1 1h6l1 1 1-1h3v1h7l1 1h2l5 1h9l1 1h24l1-1v-1h-6l-5-1h-9l-6-1-10-1-8-1-7-1-9-1-3-1h-3 7l5 1 1 1 7 1 20 1h1l2 1h2l8 1h5l9 1v-2h-1l-5-1-2-1-2-1-3-2-2-2-2-2-2-3h-1v-1l-2-3-3-4h-1v-2l-2-1-2-3-1-3-1-1-2-2h-1v-1h-1l-1-2h-1v-1l-2-2-1-3-1-4 1-3v-3l1-1v-1l1-1v-4l1-1v-2l-1-1-1-1-2-2-1-1-1-1-2-2h-1l-1-1-1-1-1-1-1-1v-1l-2-1-1-1-1-1v-1l-1-1v-1h-1l-1-4v-1l-1-2-1-1v-1l-1-2-1-1h-1v-1h-2l-2-1h-2l-1-1h-3l-1-1h-8l-1-1-1 1-1 1-1-1v1h-1v1h-3l-2 1h-1l-3 1-1 1h-3l-1 1h-5v-1h-6l-1 1-1 1-1 1-1 2-3 3-1 1-4 5-1 1ZM449-16v11l-1 1h1l-1 1v2l1 1-1 1v10l-1 4 1 1h-1v5l1 1h-1v16l2 4 1 1v1h1l1 2 2 3v1l2 2v1h9l1-1 3-2 1-1 6-7 4-4 1-2 14-16 3-8 1-3 1-2 1-2 2-2 3-3 10-6 3-2 1-1 1-1v-1l1-1-1-1-2-1v-2l-1-1h-68l-1 1Z" fill="#B2DFF3"/><path fill-rule="evenodd" clip-rule="evenodd" d="m315 9-1 1-1 2-2 2-2 3-2 3v2h-1v3h-1v2l-3 10 2 1h3l2 1 8 2 2 1 4 1h1l4 1 6 2 5 1 5 1 14 4 5 2 1 1 1 2 2 3v2l-1 2 1 3 1 1v1l2 1v1l3 1 21 9 9 3 12 5 16 7 4 2 4 2h4l2 1 4 1h4l1-2-1-1-1-3-2-3-2-4-1-2v-4l2-4 1-1 1-1 1-1 1-2 2-2v-1h1v-1l1-1 1-1v-2l-1-1-1 1-4 5-2 4-4 3-2 3-2 3-1 2h-1l-1 1-1 2-1 2-2 1h-1l-2 1h-1l-1-1-3-1-3-1-4-2-18-8-5-2-9-3-8-3-6-3-2-1-1-2-1-1v-5l-1-3-2-4-2-2-4-2-4-1-9-2-5-1-2-1-2-2-3-4-2-3-9-5-8-4-4-3v-3l3-3 1-2 5-8 1-1 2-3 8-12 1-2v-1l-3-2h-1l-1 2h-1v2l-1 1-1 1-2 3v1h-1l-2 3-2 3v1l-1 1-3 5Z" fill="#B2DFF3"/><path fill-rule="evenodd" clip-rule="evenodd" d="M369-40v1l-1 1 1-2-1-2-2-2-1-1-1-1-1-1h-4l-1 3-1 1-2 2-1 2-1 1-1 2-4 5-1 3-4 5-1 1-1 1-4 6-1 3-1 3-2 2-4 7-1 2-1 1-2 3-3 5-6 7v2l1 1h2l6 4h1l1 1h1l2 1 4 2 1 2 2 1 1 1 1 1 3 4 1 1 2 1 4 1 10 3h1l2 1 4 1 3 2 1 1 4 5 1 3v6l1 1 1 1 11 4 6 3 4 1 5 2 10 5h1l7 3 2 1h2l1 1 5 2h1l3-2 8-11 4-5 2-2 3-5h1v-2l1-1-1-2-1-2-2-3v-1l-2-3-6-9v-9l1-14V9l1-9v-13l-1-1h-11l-2 1-6 2h-2l-2 1-9-2h-5l-5-1h-1l-3-1-3-2-3-3-7-7h-1l-5-6-2-2-2-2-3-2-1-1h-1v-1Z" fill="#B2DFF3"/><path fill-rule="evenodd" clip-rule="evenodd" d="M431 131h1v-1h1l3-12v-3l1-1v-1l2-3 4-5 2-1 2 1h4l2 1 3 1 6 1h3l8 3h3l3 1 1 1 1-1-2-1-6-1-7-2-4-1h-2v-1h-1l2-4v-1l-1-2-3-3v-2l-1-1v-2l-2-2v-3l-1-2v-1l1-2v-1l2-2 1-1 1-2 3-3 2-2 2-1 1-2 1-1 2-2 2-2v-1l1-1 2-2v-1h1l2-3 1-1 1-1 1-1v-1l2-1 1-2h1l5-7h1v-1l2-2 2-2 1-1v-1l4-3 1-1 2-1 2-2 1-2 1-2v-3l1-1v-2l1-1-1-1h1v-1l1-1v-1l1-1h1l1-1h1l1-1h5l2-1 3-1 3-3 1 4 1 1 1 2 1 1 2 1 1 1v1h2l1 1h1l2 1h4l2 1h1l1 1h2v1h1v1h1l1 1 1 1 1 1h1v1l1 2 1 2v1l1 1v1l1 1v2l2 2v1l1 2h1v1l1 1 1 2h1v1l2 1v1h1l1 1 1 1h1v1h1l1 2h1l1 1v1h1v1l1 1v2h1v2l1 1v4l-1 1v4h-1v11l1 2v1l1 2 1 1 1 1v1h1v1l1 2h1v1h1v1h1v1l2 2 1 2v1h1v1h1v1l1 2 2 3 1 1 1 1h1l1 1v1h1v1h1l1 1 1 1 2 1h1l2 1 2 1h2v1-1l1 1h1l1 1v-1l1 1 3 1 1 1 2 1v1h1l1 1v1h1v1l1 2v3l1 1v2h-1l-1 1h-1v-1l-1 1h-7l-1-1h-1l-2-2-1-2-1-1h-28l-5-1-2-1h-3l-2-1h-6l-1 1 1 2v-1h1l6 1 4 1 2 1h8l3 1h22l2 2 2 2h10l2-1 3-2v-1l-1-3v-1l-1-2-1-3-3-3-3-2-1-1-2-1-3-1h-2l-2-1-2-1-2-1-2-1-1-1-1-1-1-1h-1l-1-1v-1h-1l-2-3-1-2-2-1-2-4v-1l-1-1-1-1-1-1-1-2-3-4-2-3-1-2v-8l1-5 1-2v-7l-1-3-2-3-1-2-2-2-7-6-3-3-3-3-2-5-2-4-2-4v-2l-2-2-1-1-1-1-4-3-2-1-2-1-3-1h-8l-2-1V9l-2-1-1-1V3l-1-2 1-1 4-5 1-2 2-4 1-4 1-4-1-1v-2l-1-3v-2l-1-1v-1l-1-3h-1v-1h-1v-1l-1-1-3-3h-1l-2-1h-1l-1-1h-2l-4-1-3-1h-1l-5-1-2-1h-2l-3-1-7-2-6-1h-4l-3 1-5 1-8 3-5 3-12 7-4 2-12 4h-1l-4 2h-2l-2 1-4 1-4 1h-9l-4-1h-2l-4-2-3-2-3-3-3-3-3-3-2-3-2-2-3-4-4-3-3-4-4-4-1-1v-1l-2-1-1-3-1-1-3-5-3-6-3-20-3-7-4-6-1-3-2-3-2-2-1-2-3-2-1-1-2-1-2-1h-1l-2-1h-2l-2 1h-2l-2 1-2 1-3 2-10 8-2 2-2 1-2 1-2 1h-11l-5-1-5-2-3-2-2-2-3-2-2-1-3-4-3-5-3-5-2-4-1-4-1-4-1-4v-3l1-6v-3l2-4 1-2 2-4 1-1 3-3 2-2 2-1 2-1 1-1h10l1 1 3 2 2 1 3 4 5 6 3 3 5 3 4 2 3 1h8l3-1 3-1h3l1-1 3-1 3-2 2-3 2-2 2-2 1-1 1-1 3-5 1-6v-1h1v-3l1-3-1-1h1v-1h-1l1-1h-1v-1l1-2v-6l-2-2v-3l-1-1v-1l-2-5-1-2v-1l-1-1-1-2-1-1-1-2v-1l-1-1-1-1-1-1-1-1-2-2-2-2-1-1-4-2-4-2-6-2-3 7h3l2 1 5 2 2 1 3 3 3 2 2 2 3 5 2 4 2 5 1 5 1 3v9l-1 6-1 3-2 4-2 3-3 3-1 2-3 2-4 3-3 2-2 1h-8l-4-2-2-1-2-1-2-2-5-5-2-3-4-4-2-1-3-2-3-1-3-1h-7l-2 1-1 1h-3l-1 1-2 2-1 1h-1l-1 1-3 4-3 5-1 1-1 6-1 2v14l2 5 1 4v1l2 3 1 3 2 4 2 3 3 4 3 3 4 3 2 1 5 2 4 2 2 1h3l2 1h6l3-1 5-2 2-1 2-1 2-1 4-3 3-2 4-4 3-2 2-1 2-1h3l2 1 2 1 2 1 2 2 2 2 1 1 1 2 4 8 1 4 1 3 1 3 1 9 1 4 1 4 1 4 1 4 1 4 2 2 1 2 1 1 2 2h-1l1 2 1 1 4 4 2 3 4 4 3 3 7 7 3 3 5 5 2 2 2 1 4 2 1 1 5 1h15l10-3 3-1 2-1 2-1 4-1 4-1 9-4 3-2 2-2 4-2 7-3 2-1 2-1 5-2 5-1h5l2 1h6l8 3 10 2 5 1 3 1 4 2 1 1 2 2 1 1v2l1 2 1 2v8l-1 2-1 3-1 1-2 2-1 2v2l-1 2-1 1v1l-2 1-3 2-2 1-1 1h-5l-2 1h-1l-1 1-1 1-2 1-1 2-1 1h1v1h-1v3l-1 1 1 2v3l-1 2-1 1-2 2-3 2-3 2-3 4-1 2h-1l-1 2-4 4-5 6-3 3-3 4-2 2-5 7-2 2-2 1-1 1-3 3-2 3-2 2-1 1-1 2-1 2v1l1 1v3l1 2 1 3 2 3 1 2 2 3v2l-1 1-1 1v1l-3-1h-3l-3-1-1-1h-3l-1 1-2 2-1 1-2 2-3 4-1 3-2 9-2 5v1Z" fill="#B2DFF3"/><path fill-rule="evenodd" clip-rule="evenodd" d="M454 56v2l1 2-1 1-7 10-13 15h1l-2 2h-2l-55-23-2-1v-1l-1-5-2-5-1-2-2-3-2-1-5-1-10-3-7-2-3-1-6-8-12-7h-1l-5-3-1-1h-1l-1 1 1 1 2 1 11 7 7 3 4 6 3 2 14 4 8 2 3 2 3 5 1 2v4l1 5 3 1 54 23 3 1 2-1 1-1 19-24 2-2 1-3v-2l-1-2-1-1h-1v1ZM495 21l-1 1-2 3-7 7-14 17-3 3-1 2-2 1h-5l-2-1v1l1 1h3l3 1 2-1 1-1 3-2 7-8 6-7 6-7 6-7 2-4 4-9 2-5 2-2 3-2 6-3 5-3 3-4 1-2 1-3v-1l-1-1h-1v3l-1 2-1 2-3 2-11 7-4 2-2 4-5 11v2l-1 1ZM454 53l-1-2-8-13v-2l2-47v-4l-1-1-1-1h-17l-4 2-3 1-6-1-12-1-4-1-3-2-7-6-12-12-3-3-2-1v1l1 3 2 1 1 1 1 1 3 3 10 11 5 3 3 2 2 1 4 1 14 1 2 1 2-1 4-1 4-1h2l7-1h4l1 1h1v4l-1 22v6l-1 4v18l7 10 2 3v1h1l1-1ZM223 360h-3v3l2 1v1h2l1 1h2l1-2v-2h1l4-1v-1l1-1h-1v-1h-2l-4 2h-4ZM259 346h-3v1h-1v1h1v1h-1v1h3l1 1 1-1h1l1-1v-1h-3v-2ZM233 334v1l1-1h1l1 1 1-1v-1h-1l-2-1h-1l-1 1v1h1ZM220 341v1h-1v1h-4l-1 1h-1v1h-1v5h3l1-1 1-1 1-1v-2l1-1v-1h1v-2ZM220 338l1 1v-1h1l1-2 1-2 1-1v1l1 1h6v-1h-2l-2-1-1-2h-2v1h-1v1l-1 1-2 3v1h-1Z" fill="#B2DFF3"/><path fill-rule="evenodd" clip-rule="evenodd" d="M231 338h-3v1h-1v1l-1 1v3h-1l-1 1v1h1l2-1v-1h1v-1h-1v-1h1v-2h6l1-1h1v-1l1-1v-1h-1v-1h-1l-1 1h-1l-1 2h-1ZM266 338l-1 1-1 2-1 3h1v-2l1-1 1-3ZM282 329h1l1 1 1-1h1v-3h-1l-1 1h-2v2ZM275 335h1v-1l2-2 1-1 1-1v-1h-1v1l-1 1-1 1v1h-1l-1 1h-3 2l1 1ZM166 0v4l1 4v1l1 2 1 1v2l1 2h1l1 1 4 6 3 3v1l1-1v-1l-1-1-1-1v-1h-1l-2-4-2-3-1-1v-1l-2-2h-1v-1l-1-2-1-4v-5l-1 1ZM615 125v2h2v-2h-2ZM615 122v1h2v-1h-2ZM430 134l-13 51h1v1-1l14-51h-1v-1l-1 1ZM417 189v-1 1h-1l-6 25-3 13-1 1v1h-1l-1 1h-1l-8 2v1l8-2h1l1-1h1l1-1 1-2 5-22 4-14v-2ZM238 51v1h-2v2h1l1-1v-1h1l1-1h1v1h1l1-1v-1l1-1v-4h-1l-1 1v3l-1 1h-1l-1 1h-1ZM272 61h-1v-1l-1-1v-1h-2l-1 1v1l1 1 1 1h1l1 2v1l1 1v1h1v-3l-1-1v-2Z" fill="#B2DFF3"/><path d="M505 270v-2l1-1 1-5 1-3v-13l-1-1v-3l-1-1v-2l-1-1v-1l-1-1v-1l-1-1-1-1v-1l-4-5v-1l-1-2-1-1-1-1-1-1-6-8v-1l-1-1-1-1v-1h-1l-1-1-1-1-1-1h-1l-1-1h-1l-1-1h-1l-1-1h-1l-1-1h-3l-15-4-7-2-8-3-7-1-8-2-6-2-6-2h-2l-1-1h-1l-1-1h-1l-1-1h-1v-1h-1l-1-1h-1l-4-5-1-1-1-1-1-1h-1v-1h-1l-1-1-1-1h-1l-1-1h-1l-1-1h-2l-1-1h-5l-1 1-1 1-1 1v1h-1v2l-1 2v2l-2 6-1 5-1 5-2 5v2m136 70-1 5m1-5v2m-1 3-1 4v4h1v1h2v1h3l7 2h1l3 1h1l2 1h7l1-1h1l1-1h2l1-1 1-1 2-1 3-2 2-1 1-1h6l3-1h48l2-1h34l1 1h23l2-1 4-1h32m-196-2v-1l1-2m-339-3v-2l-1-1v-1h-1v-1l-1-1-1-1-1-1h-1l-2-1h-1m0 0v-1h-1l-2-1h-2m5 2-1-1-1-1h-1m-2 0-8-1-4-1m12 2h-2v-1h-1l-9-1m560 21h5m-5 0h1l1-1m3 1h3m-3 0h-2l-1-1m6 1h8l2 1h8l2 1h19m-39-2h1l1-1h1l2 1m-543 43 1-2v-1l1-2v-2m-2 7 1-4 2-5 1-6 2-5 1-5v-7l-1-1v-1h-1v-1l-1-1-3-3-1-1-1-1-1-1v-1l-1-1v-1l-1-8v-2h1v-1l1-1h1v-1h3l1 1h1l1 1 3 1 5 3 5 3h2l2 1 1 1 3 1 1 1h1l1 1h3l3 1 7 2 7 2 2 1 25 7 8 2 8 2 2 1h3l2 1h8v-1h3l1-1h1l4-2h1l2-1h2l1-1h12l1-1h21l2-1h3l3-1 3-1h3l2-1h1l1-1h1l2-1h1l2-1 1-1h1l1-1h1l1-1 2-1 5-3h1l1-1h1l1-1 1-1 1-1v-1l1-1v-1l1-3v-1l1-3v-8l-1-1v-4l-1-1v-2l-1-1v-1l-1-1v-2h-1v-1l-1-2-1-3-1-3m-193 90v1l-2 5-1 5-2 7-2 6-2 5-2 5-1 6-1 3v1l-1 1v2l-1 1v1l-1 1-1 1-1 1-1 1h-1l-1 1-1 1h-1l-1 1-3 1-6 2-13 4-1 1h-2l-1 1h-1l-1 1h-1v1l-2 1-2 2-4 3-6 5-2 1-4 4-1 1h-1v1h-1v1l-1 1v1l-1 1-2 7m82-103v2l-1 4-5 15-1 6-2 5-1 4-1 4-1 3-1 4-1 3v1l-1 1v1l-1 1v1l-1 1v1l-1 1-1 1-1 1h-1l-1 1v1h-2v1h-2l-1 1-4 1-12 4-3 1-2 1h-2v1h-2l-1 1-1 1-2 2-1 1-4 3-1 1m62-81 1-1 1-5 1-2 1-5 1-3 1-1v-7l-1-1v-1l-1-1v-1h-1v-1l-1-1-1-1-1-1h-1l-1-1v-1l-1-1-1-1v-3l-1-6v-2l1-1 1-1 1-1h2l1 1h1l1 1h1l2 1 3 2 3 1 4 3 3 1 1 1h1l2 1h2l1 1h2l1 1h1l2 1h1l4 1 13 4 4 1h3l7 3 8 2 7 2 5 1h1l3 1 3 1h2l2 1h12l1-1h1l6-3h1l2-1h2l1-1h20l5-1h10l2-1h4l2-1h2l1-1h3l2-1h1v-1h1l2-1h1l1-1h1l1-1h1l1-1 2-1 6-3 2-1 1-1h1v-1h1v-1h1v-1l1-1v-1l1-1v-1l1-4v-13l-1-1v-2l-1-1v-1l-1-2v-1l-1-1v-3h-1m0 0-1-2v-2l-1-2-1-1m3 7-1-6-1-1v-3l-1-1v-3l1-1v-5l3-8v-3l1-1v-2l1-3m-6 30v-2l-1-1v-6l1-1v-3l1-1 1-6 1-2v-1m139 63v2m0-2-1 5m1-5 1-1 1-4 1-5v-4l1-1v-6l-1-1v-5h-1v-3h-1v-2l-1-1v-1l-1-1v-1l-1-1-3-4-1-2-1-1v-1l-1-2-1-1-2-3-2-3-2-2v-1h-1v-1l-1-1-1-1-1-1-1-1-1-1-1-1h-1l-1-1h-1v-1h-2l-1-1h-1l-1-1h-2l-1-1h-2l-1-1h-2l-3-1h-1l-2-1h-1l-7-2-3-1h-3l-9-3-9-2-2-1-7-2-6-1h-1l-1-1h-1l-1-1h-1l-1-1h-1l-1-1h-1v-1h-1l-1-1-1-1-4-5-1-1h-1l-1-1-1-1h-1v-1h-1l-1-1-2-1h-1l-1-1h-3l-1-1h-1l-1 1h-2l-1 1-1 1v1h-1v3l-2 4-1 5-1 5-2 6-1 5-1 4-1 1v2l-1 2m139 65v1l-1 2m0 0-1 3v3h1v2h2v1h3l12 4h3l1 1h4l1-1h2l1-1h1l1-1h1l1-1 1-1 2-1 1-1 2-1h1l1-1h2l1-1h32l9-1h50l6 1h16l1-1h3l2-1h16l12-1h5m-334-69 1-2v-1l1-1v-2l1-1m378 79-2-1h-19l-7-1h-1l-2-1h-9m0 0h1l5 1m-6-1h-2m-3 0h3m-3 0h-2m5 0h-5m13 1h6l7 1h4l5 1h7M87 61l-3 2-3 1m7 0-2 1-4 2m-17 71h-1v1l-5 4m8-3h-1v1l-5 5m251 143h-7 7Zm-155 72 1 1 2-8-3 7Zm19-96 7 4v-1l-7-3Zm190-56-2 7h1l2-7h-1Zm-61 79h7-7Zm123-98 8 2v-1l-8-2v1Zm22 6-8-2 8 2Zm45 26-4-7v1l4 6Zm14 62v1l7 2-7-3Zm79-6h-8 8Zm13 1h-7 7Zm71-2 8-1h-8v1Zm11 0h8-8Zm-511 4h-1l2 3 1 1 2 2v1l1 1v6l-6 19v2l-4 13-2 6-3 9-2 9-3 10 1 1 3-10 17-58v-7l-1-3-1-1-2-2-2-2Zm-2 0 1-1-1-1-1-1v-1l-1 1 1 1 1 2Zm-3-5h2l-1-1v-1l-1-5v-2h-1v2l1 7Zm0-10 1-1 2-1h2l2 1v-2l-2-1h-3l-1 1-1 1v2Zm8-3v2l13 7 4 2 3 1 2 1h2l2 1 3 1 61 17h4l2 1h6l2-1h2l2-1 2-1-1-2-3 1-2 1-2 1h-7v1l-2-1h-2l-55-15-9-3-4-1-3-1-3-2-3-2h-1l-13-7Z" stroke="#E1E3E7" stroke-width=".2" stroke-linejoin="round"/><path d="M47 117v4l1 3v20l1 1v2l1 2 2 3 6 6 1 1 1 2v1l1 2v7m-14-54v-14l-1-2m1 16h-1m1 0h4l3-1h1m6 55v14m0-14h4m-4 14v11l1 3v4l1 3 2 3v2m-4-26h-1m5 26 1 1m-1-1h-1m1 0 1-1h2l3-1m-5 3 1-1 2-1h2m-5 2h-2M79 61H61v2m18-2v40m0-40h4l1 1h1l1-1h1l1 1 2 1v1h1l13-1m-25 38v1m0-1H60m19 1H60m19 0v14m0 0H60m19 0v16m0-16h11m-11 16h24m-24 0v14m0-14h-9l-3 2-4 5-1-2-1-2 1-3m67-35-9 4m9-4 9 22 1 1v3l1 5m-11-31-14-35m5 39-10 4m10-4 11 25v3m-21-24-6 3-1 1m7-4 4 9 1 3 3 5 4 10m-19-23-2-1-1-3-2-5-2 1-1 3v3l-1 1-2-1m11 2 9 23m-9-23v7m-38 55h14m-14 0v-21l-2-1-3-2-3-4-4-1h-2l-1-1 1-1 8-8h3m17 39h1l7-3 3-1 5-3 3-1 5-2h1m-25 10v1h-1v2m1-3v-11m25 1 1-1 9-3 8-4m-18 8v-1m0 1 3 7 1 1 1 3v1m13-20 7-3m-7 3 4 11 1 1v1m-37-50v-2l1-1 1-5v-1m-2 9h13m-11-9 12-44m0 0 6-24m-6 24h4l5-1h2m0 0-3-7v-4l-1-2 1-1v-4l1-2 1-1 1-2m368 316 1-2v-2l1-3 3-9 1-5 1-5 1-1m-8 27-2 7m2-7v-4l1-3 3-9 2-8v-4m7-102 1-1v-1m-1 2 1 2 2 2 1 3m-4-7v3l-1 2v1m1-6-2-3-2-3-2-2-3-5-2-2-3-2-3-2-1-1-1-1-3-1h-2m25 20v-1l1-3m-1 4 2 1m-2-1-1-2-1-2m11 41 1-4v-11l-1-3-1-3-1-1-1-2-1-2-2-2m6 28-1 2h-3l-1-1m5-1-1 4v2m-389 81-4-1-2-1-5-1-2-1-5-2m18 6h-4l-15-4m19 4 12 4 4 1 4 1m365-92 3 4 1 1m-4-5-1-1m5 6h1v1h1m-2-1-2 8-1 3-1 4v2M28 266l1 1m-1-1-6 7-6 7v1l-6 6-4 4-8 7-7 7m37-39 1-2 2-2 1-3 1-2 1-3 2-5v-1l3-6v-1l1-3 1-1 2-6 2-6v-1l1-1v-1l1-1 1-2 4-2 3-2 8-3 1-1m-35 56 2 1m-2-1 2-2v-1l1-2 1-2 1-2v-1l1-3 2-4v-1l1-2 1-3 1-2v-2l1-1v-1l3-8 1-4 1-1 1-2 1-1v-1l2-2 2-1 2-1 2-1 4-2 3-1 1-1m-35 55-10 12-2 2-1 1-9 10-5 5-3 2m629 43 31-7m-31 7v12m0-12v-8m31 1 28-6h3m-31 6v13m0-13v-8m31 2v-11h-1v-1h-7m8 12v10m-41-59v-2m0 2h-5l-2-1h-51m58 1h7m-7-2v-30m0 30h-6l-2-1h-21l-20 1h-9m58 0h13l6-2h13M41 260l4 4v1h1m-5-5-1 1-6 5-3 2m10-8 10-11m-5 16-3 3m3-3 6-6m23 102v-2l2-6v-1m-2 9-2-1-3-1-16-5m21 7h1l3 1 11 3h1m-14-13-14-4h-3l-11-3m28 7 5 2m64-154-3-7m3 7 1-1h2v1h1m-4 0-3 1h-2m2-8 1 1v1l5 4 1 1m-7-7-3-8m0 0-3-6m3 6h-1l-4 1m2-7-4-10-2-4v-1m6 15-4 2m-2-17 1-1 7-3m-8 4-4 2m160 129v-1l-1-1m1 2 2-1 1-1h1l2-1 1-1m-8 2h3l2-1 2-1h1m-8 2v-3l-1-1v-8l-1-9v-12l-1-5v-4M70 272l-3-1-4-1-1 1-6 20m14-19 5-14v-1m-5 15-2 9m562 113h1l1-1 3-2 5-2 3-3 4-4 1-2 2-2m0 0 2-7m-2 7h-1v-1l-3-1-3-1-3-2-2-3-3-7v-9m17 17 3-7 2-6v-1m-5 14h-1l-2-1-1-1-2-1-2-2-1-2-1-3v-8m15 4 1-1 1-3v-5m-2 9-11-3h-2l-2-1m15 4h1l3 2h1l4 2 4 3 5 4 5 6m-21-26h-5l-3-1m8-20-1-8m1 8-18 5-12 2h-1m31-7 15-3v-6m-16 1h-8m8 0 16-1M71 210l3-2h2m-5 2v-1m5-1v-1m0 1h-3l-2 1m311 144h-1l-2-1m3 1-2 7m2-7 1-6M87 204l1 1h3m-4-1v-4m0 4h-4m4 0 1 2m3-1 4-2 6-3h1l2-1 5-2 3-1m-21 9h-1v1l-1 1 1 1v1m22-13 1-1 3-1h1m-5 2-2-3-1-3m8 4h1l5 14v1m-6-15v-1l-2-5m2 6 7-3h1l3-2m510 21v10m0-10-14 5h-1l-1 1v1l-1 2v28m17-37 14-4m0 0 1 3v39m-1-42 6-2h2l3-1h3m0 0v44m0-44h15m0 0v44m0-44h31M397 352h1l3 1 4 2m-8-3h-1l-1-1h-2l-1-1-1-1h-1m7 3v1l-4 15-2 8v1l-6 22v1l-8 27v3l-1 4m21-82 2-7m6 10 5 2 2 1v1l-3 13-1 2-1 6-2 6-2 7v7l-1 3-1 1v1m4-50v1l-3 8M132 238l3-11 1-4v-2m-4 17-8-2m8 2 7 2 9 2m-12-21h-2m2 0 9 3m269 62h-1l-4-1-1-1m6 2-4 16-4 15m8-31 3-11 1-2v-2m-10 13-1-1-1-3m2 4-1 2-8 29m7-35-2-5m2 5-8 2m6-7-29 9h-1l-1 1-1 1-1 1-1 5v1l-1 1m35-19 3-1 7-2h1l3-1m-28 78-7-2m7 2v1l-3 13-2 4-1 3v1m-1-24-2-1M127 166l-6 2h-1l-1 1-9 4h-1m18-7 1 3 1 2 2 5 1 1v2l1 1v1m268 158h-2l-15-5h-2l-3-1-8-2m30 8h1l20 6m-21-6-1 1v1l-1 4m-28-14h-2l-3-1h-3l-1 1v1l-1 1v2l-2 5v1l-2 5v2l-1 1v8l-1 1h-2l-1-1m19-26v1l-1 3-2 7v2l-1 5-1 3m225-73v-1m0 1v8l1 1v2l1 1v1l6 6 1 1m-9-20h-2l-8 1h-34l-1 1h-2v1l-10 6h-2l-2 1h-2l-1 1h-2m66-12h-21l-19 1h-5l-2 1-10 6-1 1h-2l-1 1h-7l-1-1h-1l-2-1h-3l-3-1-6-2h-1m129 71h-7m7 0 7-1m-7 1v-3m7 2v-3l1-1m-5-129h5m-5 0v28m-109 71-6 25m6-25-5-2h-1l-1 1-7 24v2h8m6-25 7 3h3l3 1h13m-32 21h8m-8 0-1 5-1 4v2m0 0h-10m10 0v6l33 12m-33-18h19M-1 226h3v1h1l1 1v1l1 1 1 1 1 1v1l1 1v2l1 1v11H8v1l-13-1m616 77v-5m0 0h3m-3 0-8 1m-229-26-2 9v1l6 2m-4-12 1-5 1-1 2-1 3-1m-7 8-5-1m12-7 8-3m-8 3 1 4v2l-4 14m11-23 9-2m-9 2 1 1v6l-4 17-1 1m13-27 1 4v2l-7 25m-269-60v-7l-1-1v-5l1-3 1-1m-1 17 2 1 16 4 11 3 8 1 1 1h2v-1h1l3-4 5-5 1-3 1-3m-51 6-14-3m15-14v-3l2-8 1-1v-3l1-1v-1m0 0-1-1v-1l-1-2-2-6h-1m5 10 6 2m-6-2h-1l-11 2m7-12-7 3-2 1h-1m10-4 1-1 3-1 5-2 2-1m280 249 1-2 2-9 6-20v-2l1-4 2-7 1-4 2-8 1-3v-2l2-7v-1l6-19v-3l1-3 2-7v-2m0 0-19-5m19 5 19 6 3 1 6 8 4 5 1 1v2l-1 6v1m217-41h-4l-3 1v28l-3 6m10-35v43m-10-8 3 4 2 5 1 1 2 6 2 8v21l-1 3v3l-1 1M285 101l2-1 2-1m0 0h3l2 1h1l7 2m-13-3h-2l-1-1v-1m245 247 3-14 1-1h1l3 1 2 1h14m-24 13h8l1-1 2-1h1m12-11v7m0-7v-8m0 8 10-1 20-1h10m0 0-1 2v3m1-5 1-2v-6M283 132l-1 3v4m1-7v-13l1-2m-1 15v7m-1 0v1m0-1h1m-1 1h1m-1 0v41m141 28 11 3m0 0 1-4m-1 4-4 15M31 268l-9 9v6l1 2h1l1 1m9-10-4 4-1 1v2l1 1v2m4-10 9-8m-9 8 1 1 1 1h11m0 0h4l1-1 4-15v-1l-4-2m-5 19v4l1 2v5m4-30 3-6h1v-1M30 358l2-2 2-2m0 0-1 3-1 2m128-133h-2l-1 1-1-1-6-1m10 1 2 5 1 2 1 3 2 2 1 2m-7-14-2-5v-1l-1-2-2-5-5-12v-1m0 25-5-1m5 1-3 8m-2-9-3 7 1 1 4 1m-13-12 1-2v-1l1-4 1-2v-2l-3-6m-18 17v4l-7 25m7-29-3-7v-1m319-47 12 3 1 1m0 0h2l2 1 29 7m-33-8-4 15-1 6-1 1m6-22 3-12 5-17v-2l1-2M70 342l1-3 1-2 1-1v-1m0 0-19-5m19 5 24 8m295-30 7 2m-7-2-3-1-3-3h-1m84-58 11-3 5-3 3-1 2-1 2-1 1-1m-24 10 8-28v-1l1-3-10-3m1 35-24 7-10 3-3 1h-2l-7 2m126 99 7 3h1m0 0h1l5 2 4 2h29l1-1m-40-3-3 7m3-7v-2l1-3-1-6m40 14h1l1-1 2-1 1-2v-10m-5 14 4 7m-4-7-2-3-1-2v-10m8 1-4-1h-4m8 1 3-1h4m-464 2v-1l2-4 1-3m-3 8-1 1m1-1-2-1-5-2h-2m9 3 2 1 4 3m153-258v1l-1 2m1-3 1 1h1m-2-1h-2m1 3v3l-1 1v1l-3 10v1l-2 8m6-24 1-1h1l1-1m-3 2v-2l-1-1m97 213 6 2h1m-37-23h-3l-1-1h-1l-1-1-1-1v-1l-1-1v-1h-2l-14 4m24 2v1l-3 11v2l1 1 8 15 3 2 11 4h1l7 2 4 1h1m226 21v1h-1v19l1 1 1 2m-1-23h-11M68 281h1l7 2m-8-2-4 13m12-11 5 2 4 1m-9-3v-1l6-21v-1h1m2 26 5 1m-5-1v-1l1-2v-5l1-3v-1h2l5 2m-4 11h1l3-11m-4 11 11 4h2l7 2 1 1m0 0h1m-1 0 4-12m-4 12-1 5m474 85 2-5 1-1h10l2-1 1-1h1m-17 8-30-11m30 11 11 4h2l1-1 2-1 6-4m-5-6 1-1 6-4 1-1v-16m-8 22 4 5 1 1m3-28h8m-218-9h1l5 1 4 2 4 2 6 2h2v-1l1-4v-2M-5 248l-1 7 1 1H6v7m-11-15h-7m70 68h1l4 1 5 3h2l7 2 1 1h1l2 1 1 1 4 4h1l12 4h1m-42-17-1 3-3 9v1m4-13 3-11m39 28h1m-1 0-2 7v1m2-8 4-13v-2m358-45-2 8-4 13-2 9m8-30v-1l2-6m-2 7 7 2h1m0 0 2-6v-1l-4-1-4-1m6 9 12 3m0 0-7 28-1 1-1 5h-1l-6-1-2-1m18-32 12 3 5 1v1h2m-116 26-7-2m-95-126h1l2 1h1l5 1 1 1m-10-3v-1m0 1v69m0-69h-1m55 14-8-2m8 2-1 1m1-1 2 1 4 1h1l2 1h2l5 2 8 2 6 1v1h1l1 1 1 1m-41-13-1-2 1-2v-2l1-2 7-26m-8 34-1 1m1-1-10-3h-2m4 200 2-7v-1h1l8-31 2-9m0 0 6 1 3 1 7 2 1 1v3l-1 2-1 1v1l-1 1 1 1 1 1h1m-17-15-11-3m-149-92 2 2m-2-2-2-2-2-2-1-1-2-2m7 7v5h-1m-64-2-5-2m0 0-4-1m4 1 3-12m487 98h5l3-1h2m-10 1v20m10-21h14l1-1v-9m-15 10v10h-1m-226 16 3 1m0 0-2 6v2M18 179v-1H9l-6-1h-9m609 144 1 4m-1-4h-7M48 289l4 2h4m-8-2h-5l-5-1m510-61 2 1h1l11-3 1-2m-15 4 1-2 1-6 3-10v-2l1-1v-1l2-8v-1l1-4 1-1v-1h2l5 1 7 2h6l1-1 3-1h1l2-1m-37 37-1 2h-1l-12 4-13 3m-373 6h2l7-3h6l4 1m-19 2v-2l-1-2v-5m-34-20-1 1h-2l-2 1h-6m366 1 2-7 1-3v-2l1-1m-4 13h-3l-7-2h-1l-8-2v-1h-1l-12-3h-1m37-5v-2m0 2-2-1-6-1-25-7m33 7v-1l6-22m-6 23h2l3 1 2 1 3 2 3 2 2 2 3 3 3 4 2 3m-23-18-22-6-9-3h-2m39-14 3-10 2-9 3-14m-73 192 2-6m-2 6-10-4h-1m11 4 30 7m0 0 8 3h1l3 1h5v-1h1l1-1h1v-1l1-2 1-4v-1l1-2 2-7v-2l1-1 2-2h7m-35 20 6-23 1-4 3-10m38 21h1v1l1 1v2l-3 12v4m1-20-2-1m2 1 1-6 1-2v-2l8-29 1-2v-2l1-1m-73-57-1 4-5 22-2 6-1 1v2m9-35 21 6m106 122v-6l-1-2v-1l-1-8m2 17h-17m17 0h32l5-1m-39-16h-6l-2 1-1 1m9-17 41-2m-542 9h-1v1l-1 4v1l-1 2v1l-2 6m5-15v-1m0 1-1-1-5-1-3-1h-3m299-17v-1l2-7 2-10m0 0-2 1-20 6-2 1m132 7 6 2m-6-2 1-4m5 6h2m-2 0 1-4-3-1m4 5 1 1h2m-3-1 1-3v-1l1 1h2v1l-1 3M60 185v-21l-1-1v-2l-2-2-2-2-3-4-3-3-1-3-1-2v-21l-1-2v-5m14 68v14l1 5 1 3m-2-22H39v1l-1 1v19h1l1 1h22m581 113v3m0-3h-8m8 0 7-1m16-58v-14m-120 93 1 3m-1-3h-2l-1 2M84 295h1l23 7h1m0 0h1m-1 0 1-3m-1 3-1 4-1 2m3-6 1-3m-1 3-1 4-1 3-1 2-2 7m-49-27 6 2 2 1m-8-3v1l-1 3-1 3-1 1-2 1-2 2v1l-1 1v2l-3 8m-7-26h-2l-6-2m8 2-1 2v2m-7-6h-2m0 0h-2m2 0h-2m150-37h1m-1 0-1 2-1 1h-1m182-81 2-5 1-6m0 0 5 1 4 2 8 2 4 1h1l1 1h1l2 1h2l2 1 3 1 2 1 2 2 2 2 5 5 1 1 2 2m-47-23v-1m0 1-20-6m-39 230v-2l3-14 2-6 1-2v-1m0 0v-2l3-9 3-12m-6 23h1l3 1m-4-1-1-1-11-3h-2m20-19 4 1h2l6 2m-12-3-2-1-5-1-3-1h-4v1l-1 1-2 8-1 4v2l-2 5v1m252-13-2-3m65 43 3-2 1-1h2l2-1h2v-1l1-23m64-107h14m-14 0h-15m15 0v29M11 56h-50m50 0-1 1H-1m12-1h1m618 205v-13m0 0-6-1m6 1h8m-10 86v-14m46-2 8-1m-142 38v5m208-70-2 1h-31l-1-1h-2m-234 34v-1l1-1 1-4 1-4v-2m-3 12 10 3h1m-207-76h1m-1 0v-1m0 1v3l1 8v15l1 4v9l1 1v2l1 1 1 1m-4-44v-1m0 1h1l7 2 8 2 10 3h1m125-50 1-5 1-3 2-5v-1m243 123v5m-1-44v-2m0 2v4m0-4h-15l-4 1h-2m21-1h10l4-1h7l5 1h9m-35-2h25l2-1h3l2 1h3M89 372l1-4 1-2v-1m0 0 4-16h1v-1l1-5m-19-95-3 9m3-9-7-2m7 2 10 2 11 3 6 2 6 1 1 1 9 2m-46-2h-1l-18-5m19 5 1 1 7 2m-19 34v2l-1 4-2 5m341 28v-1l1-2 1-2 1-4v-3l1-3v-1m-69-158v-1l1-2v-2m-1 5-1-1 1-2 1-2M166 278l-1 1v1h-2l-1-1m4-1-1-2-1-10v-1l1-1v-1l5-7m-4 22v3l1 2m-5-4-2-2-2-2-2-1-1-1-6-3m13 9h1l2 3 2 1m0 0h2v-1l1-1h1v-1h2l1-1h3l11 3h2v2l-3 8v2l-1 1v2l1 1v2m-20-17v-3l-1-4v-7l-1-1v-4h1v-1l3-4m-2 24-1 2-2 6m486 28 1 3M43 268l4 3m9-19h-2l-3-3m43 27 18 5h1l1 1h1m0 0h1m-1 0 2-8m-56 31 16 5 3 1 13 4 8 2h2l1 1m0 0h1m-1 0 2-7 1-2v-1m-2 10v2l-4 13m534-13v5m0-5h-7M76 207l1 2 1 2v3m-2-7h1m1 7v3l-1 2v2l1 2v2l1 1m-1-12 1-1m-1 1h-4l-1 1-2 1h-1l-1 1v2l-1 1-1 3m12 3h1m-1 0-1 1h-1v1l1 1h1l3-1v-1h1l-1-1-1-1-1 1m0 0-1-2v-1l-1-2v-2l1-2v-4m103 95 1-2v-1l1-2v-1h1l1-1 1-1m0 0 1 1 1 1v1l2 1h1l1 1h2l4 1 1 1 2 2 2 1v2l1 1v2l-1 1-1 5-1 3-1 4v7l1 4v3l-3 11-1 2v1l-1 1-2 2M49 345l-2 7 1 1m113-50h-1m1 0-1 4v2l-1 1v2l-1 2-3 11v1l-2 6-3 10-2 5v1m13-45 1-4 1-2v-1l1-1v-4m-4 12-4-1-1-1-13-3v-1h-1v-1l2-7 1-1 1-4 1-4 2-9 1-1m11 33 2-6 1-2v-1l1-2v-1m-4 12-1 3-1 4v2l-4 13-2 7-4 15v1m-65-88h1l4 1 3 1 2 1 3 1 3 1h3l4 1 3 1 8 3h1m393-100 9 2 4 1 2 1h2l2 1 6 2-1 6-1 1-1 6v1l-2 6-1 5v2l-2 5-5 18-1 5-1 3v1m-10-66-1 4v1l-1 4-11 39m13-48 3-9v-3l2-5v-1l1-2M6 263v8h-8l-9-1h-2l-5-3-1-1-1-1-4-2-3-2m33 2H-8l-3-1-3-2m191-11 4 4m-4-4-1 2-1 1m6 1 1 1 1 1m-2-2-3-2h-2l-1 1m8 3 2 2 2 2h1m-5-4 1 1 2 1 1 1 1 1m0 0 1 2 11 9 1 1 2 1 1 1 2 1 3 2 2 1 2 1 1 1 2 1 37 10 12 3h5l1-1h2l1-1 1-1 1-1 1-1v-1l1-1V161l-1-1-1-3-1-2m0 0-2-5m2 5h-1l-1 1h-1m1-6 1-1v-1m-1 2-1-1-1-1M88 199l5-2 6-2 1-1 7-3 2-1m-21 9-1 1m1-1h-1l-1-1v-1l-1-1m2 4-1 1v1l-1 1v1h-2m4-4h-1v-2h-1v-2m354-4-6-2-8-2-6-2h-3l-1-1h-2l-1-1h-2l-2-1-1-1-2-1m34 11v2m59 25v4h1v1m-1-5v-1m5 66 2 1h1l13 3 2 1h3l1 1m-22-6v-2m0 2-2-1m-80-21-1 2v1m1-3v1h1v1h1m-3 1 3-1m-3 1-2 1-15 4h-1l-2 1h-4l-2 1m-96-92 1-1 2-3 3-4m-6 8v-2l2-2 3-5 8-9m-13 18-1 3v1m7-12 1-1 1-1m-2 2h3m-1-2v1l1 1m-1-2 6-8m0 0 4-5 1-1v-1l2-5v-1m-7 13h-1m1 0 1 1h1v2h1l-1 3-2 6m7-25-1-1h-1l-10-3-11-3h-1m24 7 1 1 18 4m-19-5v-1l1-7h1v1l-2 6v1Zm0 0h1l8 2 10 3m-19-5h-3l-10-3m13 3-1 1-1 3-1 1v1l-1 1-4 6M89 239l1-4v-3m-1 7-3-1m3 1h1l2 1 4 1m-6-9 1-4 1-1v-3m-2 8 4 1 4 1m-6-10 1-4m-1 4-4-1m5-3v1h2v1l1 1h1l4 1m-8-4h-1l-2-1h-1l-1-1h-1v-1h-1l-1-1m8 4 2-7m0 0-2-2-2-1-1-1m5 4 2 1h3l1 1h1m316 56h1l16-4 5-2 25-7m-290 83-1 1-1 4v2l-2 7-4 11v2l-1 1m9-28v-1l1-4 1-2 1-3 1-4m-4 14 1 1 2 2 2 2 4 2 1 1 1 1 2 2 1 1 1 1 1 1 4 4M26 293v-4l-1-1v-2m0 0h1m428 17 3 1m164-57h3m-3 0v3m0-3-3 1h-1l-1 1-1 1h-2l-3 2-3 1-1 1-1-1-9-19-1-1-2-2h-1l-5-3-2-1h-3l-13 3-14 2-8 2-11 4h-2l-4 1-10 3-6 2h-3l-5 2-1 1h-1v1h-1v1l-1 1v1l-1 3M372 140l-1-1-1-2v-1l-1-2-2-7v-2l-1-1-1-2-1-1-1-1-2-1-1-1-2-1-1-1-2-1h-2l-4-1m23 26v1m0-1 2 1v1h1l2 1 1 1 4 1h2l1 1m243 174h-3m-6 3-1-2v-1h-4m5 3-1-1-1-1-3-1m-115-96 2 4 1 1 1 3 1 1 2 3 1 3v1l1 1v3l1 3v11l-1 4-1 3v2m-9-49-1 1v1h-1l-1-1m161 64h4m-4 0 1 13m-1-13v-3m0 3h-4m8 0 1-1h4m-5 1 1 13m-1-13v-4m5 3 4-1m-4 1 1 13m3-14h9l3 1m-12-1 1 5m11-4 3 1m0 0 3 3 2 3m-5-6 1-2h4l2 1v6l-1 1h-1m0 0 2 3v3m0 0v5l-2 4m2-9h-5m3 9-1 2-3 2m4-4 2 1v1l-1 2-1 1-1 1h-2l-1-1v-1m0 0-2 2-4 1h-8m0 0-4 1m4-1v-5m-4 6h-5m5 0-1-14m-4 14-1-14m1 14h-4m3-16 3-1h2m-5 1h-2m7-1h3l1-1m0 0 3-2 1-1h3l2 1 1 1 1 1v2m-11-2v-8m11 10v2l-1 1-1 1-1 1h-3l-1-1-4-1m11-3 5-1m-16 4-2-1h-2m4 1 1 7m-5-8h-5m0 0h-2m0 0-2 1m2-1v-2m-2 3h-5m5 0 1 13m-6-13-4 2m4-2 1 13m-5-11-6 2h-2l-2-1-1-2-1-1v-2l1-1m11 5v7m-11-12v-1l1-1 1-1h4l4 1m-10 2-4-3m14 1 5 2m-5-2v-6m5 8h5m-5 0v-13m5 13h2m-7-13h-5m23 3h9l3 1 2 3 2 2v3m0 0v4l-1 1-1 2-1 1-1 1-1 1h-2l-1 1h-7m-13 6h-5m0 0-4 1m0 0-1-5m1 5h-9l-5-1-1-1-3-2-2-2v-1l-2-4v-7l1-4 1-1m19 18h-9l-3-1-3-3-1-4v-4l1-3m0 0 1-2 3-2 4-1h6m-14 5-4-3m18-2v-5m-12 1-1-1-3-1h-3l-1 1v2l1 2 2 2m5-5-4 3-1 2m5-5 4-1h8m-17 6-1 1m31-11-1 1h-3m-461 79 1 2 1 1m292-35 1-1v-2l1-1 1-6 7-24v-4l2-5v-1m-1-51-1-2-1-1h-2v1l-1 1m8 51v-1l1-3m-1 4-2 1m2-1 1 1h2m-2-5 1-2 1-4v-2l1-2v-1m-3 11v3h1v1l1 1M62 207l1 3 1 1m244 194v-8l1-2v-3l1-5 5-17 8-31m343-92-13 1m-371-67v69m0-69h-2v-18m245 127-1 6v2m188-95v32l4 11v9m-4-52h19m-359-62-2-2-1-1v-2l-1-2-2-6m6 13-4 2-2 2-1 1h-3m10-5 1 1 2 1 1 1 2 1 4 1h3m-109 32-1-3-1-4v-1m2 8v-9m0 9v10h-1l-1 1h-1l-4-1M98 234l5 1m-5-1 2-4m-2 4-2 7m7-6 4 1m-4-1-2 7m6-6v-4h-1l-2-1m-3 11-1 5m1-5-5-1m4-11v-2l1-4m-1 6 4 1m-3-7v-3l1-1m0 0h3v7l-1 4m-2-11v-5m-17 1v-1h-1v-1h-1l-1-1h-3m6 3-1 2h-1v2h1l3 2v1h1m-9-10v-2l-1-2-1-2m0 0 6-3m0 0h3l1 1h1v1m-5-2 1-1h1l1-1v-2l-1-1v-3m-18 27-1 1v1m1-2-1-1h-1l-2 1-1 1h-1l-1 1v1l-1 1v4l1 1v1l1 1 1 1 2 1 3 1 4 1m-5-13v1l1 1v1l1 2v2m-2-7-1 1-1 1-1 1v2l1 1v1h1l1 1 1-1h1m0 0 1 1 1 1h2m0 0-1 4m1-4 8 3m269-123 3 2h3l1 1 2 1h1l3 2 1 2 1 1 1 1v2l1 2m-17-14-12-3h-1l-26-7-2-1h-2m-13 81v-2h1v-1l4-6h1l3-14 1-1m-10 24h4m6-24v-3l2-4 1-4v-3m-3 14h1l7 2m-5-16-11-3m-12-3v33m0-33v-1m0 1h1l5 2 4 1h1m3-14-1 1v7l-1 4-1 1m3-13v8l-2 5m0 1v-1m0 1h-1m1-1h-1m68 4-1 4-1 4-1 2v1l-1 2m4-13 3-11v-6l1-1m-83 52v-7m0 7v-7m29 1-4-1-1-1m5 2v2l-1 1-2 9v1l-1 1m62 18-1-1h-2l-2-1h-2l-11-3-3-1h-1l-3-1-9-3m34 10h1l6 2h2l9 2v1h3l3 1 3 1m0 0v-1l2-9 1-2v-1l2-7v-2l2-6m-7 28-1 1v2l-1 5-1 2v2h-1v6l1 1v3m322 43h2l2 1h12l2 1h10m-28-2v2l-1 2v2l-1 3-1 1-1 2m4-12v-2m-218-19h1l1-1v-1m-2 2 2 3m-2-3-1-2m3 0v5m0-5 1-1m-330 3 1-1 1-2 2-2m-4 5-1-1m1 1 1 1h1v2m-2-3-1 1-1 1m0 0h1l1-1h1v1h1v1m0 0 1 1v3l1 2v1l1 1 1 1h1l10 4 8 3 2 1 2 1h2l60 17h3l12 3h6l1-1 1-1 2-1M42 327l-1 1-1 3v2l-1 2v2l-2 5-1 3-1 5-1 2v2m8-27v-1m0 1H26l-4-1h-3l-2-1h-4l-4-2-4-1-3-2H1l-2-1-4-3-3-2-1-1h-1l-1-2h-1l-1-1m55 16h4l7 2 1 1m-12-3h-1l-2-1h-3l-3 1h-8l-3-1h-5l-2-1h-2l-4-1-3-2-4-2-5-3-2-1m47 11v-2l1-2 1-3 1-2v-3m-11 40h4l8-1h2m0 0h1l5 1m0 0-1 1-1 6v1l-2 4-1 4v1l-2 5v2l-1 4-1 1v2l-1 3v1l-3 9m23-187v1m447 143h-3v-1l1-4m2 5v2l-1 1v3l-1 1-4-1M80 237l1-1v-2h1l2 1m-4 2 4 1m0-3 1-1v-1l1-1v-1h1v-4h1v-4m-4 12v3m0 0h2m-15 0 14 4m15 5-15-5m0 0 1-4m211-54 2 1 9 3M54 329l5 1 11 3 28 8m222-80 1-1 2-10 1-5 1-3 2-4 2-7 1-3 1-3 1-6 1-6v-3l1-5 1-2 1-7m-16 65-1-1-3-1-2-1h-2l-1-1m9 4h1l10 3h2l9 3h1m-23-6h-2l-2-1-2-1h-2l-2-1m-137-6v1l-2 2-1 1m124 35h3l3-1h23l2-1h5l3-1 5-1M74 196h-2l-1-1-1-1-1-1v-2l-1-1 1-2v-1l1-1 2-1 1-1h3m-2 12h4v-1l2-1v-1m-6 3-1 4-1 5-1 3v1m9-16 1-1v-4l-1-1-1-2h-1v-1h-2m4 9 5 1m-9-10 1-4m11 26 1 1 1 1v1m44-5h1l6-3m-7 3-6-14v-1m13 12-2-5v-2l-4-8m-50 8 1-2v-3l1-1 1-2 1-2 1-1 2-2 1-1 2-1 2-1 2-1 9-4h1m-24 21v2m-23-64-1-1v-2l-1-1v-12m0 0v-14m0 14h-2m2-14v-1m0 1H49v-1h11m0 0V88m0 0v-3m0 3h-3l-4-1h-6l-1 1m14-3H47v1h-1v2m14-3h2m41 31v16m1 28H92m12 0v-2l-1-2v-10m-11 14H79m13 0v-14m-13 14v-14m24-14h9m-9 0v14m9-14 2 2v1m0 0 8-3m-8 3 2 5-9 4h-1l-3 2m19-14 9-3m0 0 9-1m0 0v8l1 6v16l-1 1v1h-1m0 0 1 1 3 1 12 29m-46-18v1l2 4 2 5 1 2 1 2v1m-12-42H92m0 0H79m326 35v-1l1-3m-1 4v2m0-2-2-3m0 0h-1l-3-4-2-2h-1l-1-1-1-1-1-1-2-1h-1l-2-1-2-1h-2l-2-1h-1l-2-1h-1l-10-2m35 16h2l1-1M51 249l3-5 1-1 1-1h3l4 1 8 3m78 24-10-3-8-4-4-2-2-1h-3m342 6 1-3v-5m0 0 11-3h1l1-1h2l10-2h4l1 1 1 1v1h1m4-1-1 1h-1l-1 1v-1h-1m-388-65h1l2-1 2-1h1m13 1 5-2h1l1-1m489 61-1 2h-1l-1 1m17-2h11m0 0h4m99 107-37 1-2-1-1-2-1-1-1-2 1-2v-13l-1-4v-33l1-1v-4h1v-3m-91-32v-8M-42 102h1l3-1h3l3-1 5-1h14l2 1 3 1 9 4m0 0 4 1v1m-4-2-1 3v10l-1 1-1 1h-7l-8-1h-9l-2 1-6 2h-19m171 148-1 4m1-4h1m-1 0 3-11m0 0 1 1m-51-14v2m-26 66h1l5 2m-19 43v3l-1 1v-1l1-2v-1Zm66-18h1l1-5 1-3m-3 8-1 2m398-112-1 3-1 2v5m-36 63-1 3m-89-70v1l-1 1m0 0-2 1h-1l-2 1-1 1v1l-1 1-1 7-1 1v1h-1l-1 1h-2l-2-1h-2l-1 1h-1v1h-1v2l-3 10m23-28h2l1 1h1l1 2m-89 8h1m0 0h2l1 1h3l1 1h1l9 2 3 1 6 2h2m-28-118h1l3 1 6 2h1m422 113v21m0-21h4m-227-14h11l17-5m-136-90h2l6 2 5 1 2 1 3 1h2v1h1l1 1 1 1h1v1l1 1v8l-1 2-2 8v1l-1 1v1m-89 13 2 1 8 2 1 1m-11-4-4-1-5-1m20 6 8 2m-8-2-11 44-3 9-1 3-1 4-1 2v1m94-74h-1v2m1-2 2 1m-3 1 1-1h2m32 10-2-1-5-1-9-2-5-2h-3l-3-1-1-1h-2l-1-1-1-1m309 92h5l3 1m-608 5-2 7-2 5m4-12 2-7m1-5-1 2v3m1-5 2-5 1-4v-1m-15 48-1-1-1-1h-6l-2-1h-5l-8-2-6-1h-2m34-3h1m1-5v2l-1 3m7-24-1-1m27 83-1-1-3-1-3-1-1-1m8 4 7 4v-1m191-74 2-1 6-2 1-1 2-1 3-2 4-2 3-2 2-1 3-1 2-1h1m-29 14-1-1h-1v-1h-1m3 2-3 1h-1m0 0 1-1v-2m-1 3v-2l2-6v-1l2-9 1-2m-192 93 2 1 1 1M71 248l3 1v3h-1l-8-2v-1h-1l1-1v-1h3l3 1Zm240 9-1 1m48-99 1 1 4 1h3l2 1m-10-3h1l4 1 3 1 2 1m-10-3-5-1-9-3-6-1m0 0 3-12 1-2m-3 144 1-1v-3l1-2 2-7v-2l1-1v-3l2-8h1v-1l1-1 1-1h2l2 1h3v-1h1l1-1v-1l1-3 1-2 1-3v-2h1l1-1h6l2 1m-84 127 2-6 1-5 1-3M5 338h1l6 2 1 1v1l-2-1-5-2-1-1Zm0 0-19-8h-1l-7-3-2-1-2-1m418-56v-4l2-8 1-1v-2l1-4v-1l1-1v-4l-1-1v-2l-2-6m-2 34v2h2v1m-2-3-1 1v1h1l1 1h1M294 142v1m-179 45h1l3-2h2l1-1 9-4h2m2 5-1-2-1-3m238 61h5l1-1 1-1 1-1h2l1-1 1-1 10-2h1M-7 297l2-2 4-4 1-2 1-1-1-2-4-4-3-2-3-2-1-1h-1l-5 6-4 3v2l1 2 1 1-1 1-2 1M46 88v10m0 19v-16m0 16H30l-1-1-1-1V98m56 77h-2m0 0-1 6m1-6-4-1m3 7 3 1m-3-1-4-1m0 0 1-6m196-4v-1l-2-7-1-2v-3h1v-1 3h1v1l1 1v1l1 2 1 4v1m-2 1 2-1M55 116l1-1h1l1 1m-3 0 1 1h1l1-1m293 262 1 1 3 1h3l1-1v-2l1-3v-1l2-4v-2l1-4 1-4m0 0v-2l2-5m-2 7h1l3 1h2v1l1-3 1-5m-6-1h1l5 1m1-1-1 1M269 143v-1l-2-2-2-3-1-3-1-2-1-2-2-5-2-4-2-5-1-4-1-1-2-6-1-2-2-1-1-1-2-1h-2l-13-2m38 45h1v1l1 1v1m-2-3h2l2 1m1 4h-3m3 0v-1h1v-1l-1-1m0 3h1v-1h2l1 1 1 1m-5-4-1-1m1 1 1 1h2l1 1h1v2m-6-5h-1l-1 1v1m0 0v2m8 1v4m1 10v-8l-1-2m1 10-1-5 1-1-1-2v-2M46 98v3m0-3H28m34-13h13l1-1v-2m-14 3v-3m14 0H62m14 0V72H63l-1 1v9M28 98V64l1-2 1-2-1-2v-1" stroke="#E1E3E7" stroke-width=".3" stroke-linejoin="round"/><path d="m586 196-3-5v-2l-1-2m4 9 6 13 3 5 4 8 6 12 2 5 4 8m-25-51-2-3-1-1h-4l2-1v-1h1v-3m31 59-1-2-12-23-3-7-3-6-6-13-1-1-1-3-1-1v-1l-2-3-1-2-4-8-1-3-1-2-1-1-1-1-1-1-2-2-4-2-5-2-5-1-3-1-29-8-7-2h-1l-24-6h-11l-5-1-19-5h-3l-1-1-21-5-2-1-3-1-3-1h-2l-22-6-1-1h-2l-1 1h-3l-1 1-1 1-1 1-1 1-1 1-1 1v1l-1 2-1 7-1 2-1 3v2l-1 2-2 10-2 5v4l-1 1v3m235 75 1 1 1 1h3m-5-2 1 3 2 4 2 3 1 3 1 2v3l1 3 1 4v7h1v1l-1 8v5l1 19v5m-2 0v-24l-1-13v-6l-1-5v-4l-2-3-1-4-1-3m6 62-1 3v1h-2 1l1 1m1-5v7m-269 34h-1m1 0 1-1 3-15 1-5 1-3 3-15 1-3v-1l1-7 1-5 1-3 1-4v-1l3-10v-2l2-6v-4l1-2 1-7 1-2v-9l-1-3v-3l-2-3v-1l-1-4-1-1-1-3-1-2-1-3v-8l1-1v-1l3-11v-2l1-2 1-5 1-6 5-17 1-6m-27 187v4m-1-4v1l-1 1v3l-1 1v4l-1 3v1m3-14 1-7 2-7 1-3 1-4v-2l2-6 1-7 1-6 1-2 1-4 1-6 1-5v-3l1-2v-2l1-2v-4l1-3 1-6 2-4v-3l1-4 1-5v-11l-1-2-1-5-1-1v-1l-1-1-1-2-1-5-1-3v-10l1-2 2-9m10-37-4 13-2 9-1 4-1 5m8-31v-4l-1-1-2-1m4 5 1-1 1-1h3m-5 2 1-2v-2l1-1 2-10 1-2 1-4v-3l5-15v-2l1-1 1-1 1-1h1l1-1 1-1h4l2 1h2l19 5 4 2 3 1h2l17 5 3 1h2l23 6 5 1 4-1h3l4 1 19 5h2l2 1 9 2 8 2 10 3 11 3h2l6 2 4 1h1l3 2 1 2 2 1v1l2 2 3 6 2 5 2 3m41 129v3h1v1h1-1v1h-1v2m0-7v7m-4 0v-2h1m0 0 1 1v1m0 0v61l-1 8m-9-145v5h-1 3v1l2 1m-4-7 2 3 2 4m-250-50 2 1v1h1v2m0 0 1-3v-2l1-1m0 0h-1l-1 1h-1m256 169v-49" stroke="#E1E3E7" stroke-width=".8" stroke-linejoin="round"/><path d="m335 290-5 1-7 2-9 2h-6l-6-2h-7l-2 1h-2m44-4-5 2-5 1-6 2-5 2-5 2-6 2-6 3m38-14 6-2m-50 6 2-1h2l1-1h8l3 1 4 1h1l1-1v-3m-22 4-1 1-5 3-1 1h-1l-1 1h-5l-4-2h-7m63-5 6-1 14-3 2-1h3l9-3m-34 8 27-8 5-2 5-1 5-1 4-1 5-1 10-2 6-2 6-1 7-2m-80 21-9 3-5 2-5 2-6 2-5 3-2 1M27 229l-8-4-1-1-2-1-7-5-2-1-1-1-1-1-2-1-1-1-1-1-2-1h-1l-9-4-4-2m42 24-3-1-2-1-3-2-8-4-31-15m47 23 2 1h2l2 1 2 1 4 1m121 32 4 1h1l1 1h2m-8-2h3l1-1 1-1m-5 2-5-2h-3l-3-1-8-3-11-2-7-1m370-15v4h-1l-1 1-7 2-8 3m0 0-17 5-10 3-18 5-22 7m67-20 41-11 17-5 3-1 19-6m-147 43-6 1h-3l-7 1-7 1h-6l-4-1-4-1h-1m38-1-7 2-7 1-6 1-6 2-5 1h-3l-4 1-5 1-5 2-5 1-15 5m-44 16 4-3h1v-1l1-1v-2l-1-1-1-1-1-1h-2l-2 1h-1l-2 1-1 1h-1v2l-1 1v1h1v2l1 1h1l5 3m-1-3-4 2-4 3-4 2-3 2-45 29M-3 216l2 1 1 1h2l1 1 1 1 1 1 1 1 1 1 1 2 1 1 1 1v1l1 1v1l1 2v1l1 1v3l1 2v19m197 105 4-3 3-3 3-3 4-2 3-2 15-10m0 0-2 2-4 3-7 5-4 3-3 2-3 3-3 2-3 3-2 1-1 1-2 2m34-27 2-2 6-3 3-3 9-5m-26 15-9 6-4 3-4 2-3 3-4 2-4 4m28-20-3 2-6 2-2 2-11 7-5 3v1l-1 1-3 2M12 289v18l1 4v3l1 4v4l3 11 1 7 4 17 1 3m-11-71v-24m0 24-1-6v-4l-1-1H9l-1-1H6l-1 1H4l-1 1v1l-1 1v5l1 1v1m328 29 2 2h1l6 3h1l1 1 1 1 1 1 5 7 1 2h1l1 1h2l2 1h1m-26-19 28 8 6 2m-34-10-10-2m265-119 1 4 1 1v4l-1 2v1l-5 8-1 2-1 1-2 1-1 1h-2l-1 1m0 0h2l13-4 3-1m-18 5-13 4-5 2M3 288l3 3 1 1m-4-4h1l1 1h2l3-2m471 75-2 3-2 1-1 1h-1l-1-1-1-1h-1v-4l1-1h1l1-1h6m131-115v-2l-1-2-2-5-1-1v-3l1-1v-1l1-2 4-7 1-2 1-1 2-1 2-1 3-1 1-1m-32 4h-5v-1h-1v-1l-1-1v-1l1-1v-1l1-1h1l1-1h2l1 1 1 1v1l2 2m-3 3 9-2m-439 59-5-1-3-2-3-1-21-9-8-4m40 17 1 1 1 1h1v1l1 1m-4-4 3 2h3l2 1M16 321l-1-6v-22l1-2v-3l1-4v-2h-1v-1m0 40-1-3v-4l-1-4v-52m2 63 2 12 2 7m8 27-1-2v-1l-2-7-1-4-2-6-1-4-1-3m579-118v2l1 1-1 1v2l-1 1h-5v-1l-1-1-1-1v-1l1-1v-1l1-1h1v-1h2m0 0-6 1-6 2-6 2-4 1m22-6 7-2m0 0 3-1h1l1 1h1l1 1v4l-1 1-1 1h-4l-1-1-1-1-2-3m3-2 4-1 14-4 3-1M263 327l4-2 8-4 1-1h2l1-1h3l5 1h6l2-1 2-1 4-3 1-1h2l1-1h4l7 1 5 1m-58 12 16-10 3-3 5-2 4-3 4-2 2-1m24 9-30-8M36 250h6l1-1h1l1-1h1l1-1 1-1 1-1 3-2v-1h1l1-1h10m386 109 4 2 6 3h2l1 1 1 1 1 1 10 12 1 1 1 2v5m-27-28 31 9m-31-9-67-18m95-80h5l11-3h5m-21 3-46 14-23 6m69-20 39-11 18-5h2l15-5M389 332l-4-2-8-3-1-1-1-1h-1l-1-1-2-3-1-3-1-2-1-1h-2l-3-1h-1l-1-1m28 19-34-10m34 10 77 21m18-14-2 7v2l-1 1v1l-1 2h-2l-1 1h-2l-1 1-2-1-3-1-3 1m18-14 1-1 1-2 1-1v-1l2-3m-5 8 1-1h1l1 1h2v2l-1 3v9l1 1 1 1 1 1 1 1v1l2 1h1l5 2 6 4-40-12m17 7h1v1l3 1 1 1 1 1v4h-1l-1 1h-1l-1 1h-1l-1-1-1-1-1-1v-5m2-2 32 8m-32-8-2-1m-183-52 28 7 29 8m-57-15-18-5-14-4m331-84v-3l-1-1h1v-2l1-1 1-1h3l1 1 1 1v1l1 1-1 1v2l-1 1h-1l-1 1m0 0 3-1 22-6m-456 69h-2l-1 1v2m3-3 19 3 8 2h4M-9 209l5 2 2 1 1 1h1l2 1 1 1 1 1h1l1 1 1 1 1 1v1l1 1 1 1v1l1 1 1 1v1l1 2v1l1 1v3l1 2v16l-1 5m0 0 1-3v-2l2-12v-8l-1-2v-2l-1-1v-1l-1-1v-2l-1-1v-1l-1-1-1-1-1-1-1-1v-1H8l-1-1-2-1-1-1-1-1-2-1-1-1h-2l-9-3-4-2m29 52v2m-2 7 1-3v-26l-1-1v-2l-1-1v-1l-1-2v-1l-1-1-1-1-1-1v-1l-1-1-1-1-1-1-2-1-1-1-1-1-1-1-2-1m15 49v-24l-1-1v-3l-1-1v-1l-1-1v-1l-1-1-1-1v-2l-1-1-1-1-1-1-2-1-1-1-2-1-1-1-3-2-5-3-6-3-6-4m223 70-3-2-18-7h-2l-1-1h-2l-7-3m33 13 65 18m-65-18-21-6-6-2-6-1-5-2-6-2-18-6-5-2-6-2-5-1m429-25h4l8-1 3-1 7-2m-22 4 91-24m-69 20 7-1h6l1 1 15 8 2 2 1 1 1 1m41-36-8 2-8 1-2 1-4 1m22-5 18-4 7-3 6-1 10-4 5-2 5-2 4-2 5-2 5-3 10-5m-75 28-55 15-37 10m70-20-5 1-6 1h-4l-2-1h-1l-15-9-2-1-1-1-2-3M365 327l18 5m-18-5-8-1-2-1h-4l-1 1-1 1v3l1 1 1 1 1 1h1l2 1h1m363-154 10-4 6-3 7-3 7-3m-30 13-5 3-5 2-5 2-5 2-5 2-5 2-4 1-6 2-5 2-8 2-23 7m76-27 29-15M355 322l7 1 2 1h2v-1h1l1-1v-1h1v-2l-1-1-1-1v-1h-3l-1-1h-3m-63-9-6 3-1 1-2 2-1 1-1 1v2l1 1 1 1v1h5l1-1 1-1 1-1h1l1-1v-4l-1-1-1-1h-1l-4-2m118-35-8 3-15 4-9 3h-2m-174 0-22-6-5-2-6-1-5-2-7-2-17-6-6-2-6-2-5-2m79 25 70 19 9 3 11 3m-168-51-49-14M25 395l1-6v-20l-1-4-1-6-1-4-3-15M-6 218h1l1 1 1 1 10 5 1 1 1 1h1l5 1 4 2h2l2 1 4 1 5 1m611-26-8 2-11 4m-456 54h-1v-1l-1-1v-2m333-14h1l1 1 1 1m-3-2h4m-140 36h1l1 1 1 2m-3-3h3l3-1m6-2-2 1-1 1h-1l-1 1-1 2-1 5-2 2m9-12-6 2m0 0-1-1v-1h-1m-26 6 7-3 6-3 6-2 4-2h1l3-2m-246-19-24-6-34-10m-29-7 8 2 21 5m-29-7-3-1m3 1 9 3h1v1h1l1 1 1 1v4l-1 1-1 1h-1l-1 1-1 1h-1l-1 1h-4l-1-1m38-6-8-3-6-2-1-1h-1l-1-1v-1l-2-4-1-1-1-1v-2h-1v-1h-1v-1h-1l-1-2h-1l-1-1m27 21-19-5-11-3-5-1m344 99-10-2-6-1h-3l-1 1h-1l-1 1-1 1v1l-1 2-1 3v3l-1 3-2 4-1 8h-1M46 222l1 1 1 1h1l2 2 1 2v4l-1 1-1 1h-4l-3-1h-4m-43-15 8 4 3 1 2 1 3 2 3 1 3 1 3 1 2 1 3 1 2 1 4 1" stroke="#E1E3E7" stroke-linejoin="round"/></g><defs><clipPath id="a"><path fill="#fff" d="M0 0h690v360H0z"/></clipPath></defs></svg>