<svg xmlns="http://www.w3.org/2000/svg" width="3596" height="1100" fill="none" viewBox="0 0 3596 1100"><path fill="#D9D9D9" d="M208 140h3308v104H208zm0-140h3308v140H208V0Z"/><path fill="#A2A2A2" d="M208 20h3308v4H208z"/><path fill="#D9D9D9" d="M208 244h3308v820H208z"/><path fill="#666869" d="M260 284h3204v780H260z"/><path fill="#5F5F5F" d="M260 284h3204v40H260z"/><path fill="#5F5F5F" d="M708 284h48v780h-48zm708 0h48v780h-48zm708 0h48v780h-48zm708 0h48v780h-48zm580 0h48v780h-48z"/><path fill="#707070" d="M668 284h48v780h-48zm708 0h48v780h-48zm708 0h48v780h-48zm708 0h48v780h-48z"/><path fill="#5F5F5F" d="M260 596h3204v6H260zm0 260h3204v6H260z"/><path fill="#5F5F5F" d="M515 284h6v780h-6zm265 0h6v780h-6zm265 0h6v780h-6zm265 0h6v780h-6zm265 0h6v780h-6zm265 0h6v780h-6zm265 0h6v780h-6zm265 0h6v780h-6zm265 0h6v780h-6zm265 0h6v780h-6zm265 0h6v780h-6z"/><path fill="#D9D9D9" d="M738 284h48v780h-48zm708 0h48v780h-48zm708 0h48v780h-48zm708 0h48v780h-48z"/><path fill="#B4B4B4" d="M76 140h132v924H76zm0 0h132V0L76 80v60Z"/><path fill="#A0A0A0" d="m76 104 132-80v-4L76 100v4Z"/><g fill="#9E9E9E"><path d="M1834 862h6v202h-6z"/><path d="M1840 862v6h-259v-6zm0 196v6h-259v-6z"/><path d="M1581 862h6v202h-6zm124 0h6v202h-6zm6 0h6v202h-6z"/></g><path fill="#487940" d="M1988 996h1476v104H1988z"/><path fill="#53894A" d="M2015 996h1443v104H2015z"/><path fill="#487940" d="M180 996h1266v104H180z"/><path fill="#53894A" d="M210 996h1266v104H210z"/><path fill="#D9D9D9" d="M208 1064h3388v36H208z"/><path fill="#B4B4B4" d="M24 1064h184v36H24z"/></svg>