<svg xmlns="http://www.w3.org/2000/svg" width="849" height="975" fill="none" viewBox="0 0 849 975"><g clip-path="url(#a)"><path fill="#D9D9D9" d="M103 170h701v776H103zm-29-15h29v791H74zm-98 791h866v29H-24z"/><path fill="#B4B4B4" d="M45 231.204 74 155v791H45V231.204Z"/><path fill="#666869" d="M103 196h673v750H103z"/><path fill="#707070" d="M576 941h-17V198h17zm-257 0h-17V198h17z"/><path fill="#707070" d="M103 522h671v88H103z"/><path fill="#5F5F5F" d="M103 270h673v4H103zm0 84h673v4H103zm0 84h673v4H103zm0 84h673v4H103zm0 84h673v4H103zm0 84h673v4H103zm0 84h673v4H103zm0 84h673v4H103zm0 84h673v4H103z"/><path fill="#5F5F5F" d="M184 197h4v749h-4zm84 0h4v749h-4zm84 0h4v749h-4zm84 0h4v749h-4zm84 0h4v749h-4zm84 0h4v749h-4zm84 0h4v749h-4zm84 0h4v749h-4z"/><g fill="#D9D9D9"><path d="M356 778h5v168h-5zm77 0h5v168h-5zm5 0h5v168h-5zm77 0h5v168h-5z"/><path d="M356 778h164v5H356zm0 163h164v5H356z"/></g><path fill="#5F5F5F" d="M103 198h671v21H103z"/><path fill="#5F5F5F" d="M751 941V198h21v743z"/></g><defs><clipPath id="a"><path fill="#fff" d="M0 0h849v975H0z"/></clipPath></defs></svg>