<svg width="414" height="414" viewBox="0 0 414 414" fill="none" xmlns="http://www.w3.org/2000/svg">
<g clip-path="url(#clip0_43_2)">
<path d="M207 354.5C288.462 354.5 354.5 288.462 354.5 207C354.5 125.538 288.462 59.5 207 59.5C125.538 59.5 59.5 125.538 59.5 207C59.5 288.462 125.538 354.5 207 354.5Z" stroke="#21201E" stroke-width="111"/>
<path d="M207 304.001C194.029 304.026 181.187 301.432 169.242 296.375C163.474 293.935 157.957 290.941 152.768 287.433C147.618 283.95 142.81 279.984 138.412 275.59C134.017 271.192 130.052 266.384 126.57 261.231C123.063 256.042 120.067 250.524 117.627 244.756C112.57 232.813 109.976 219.971 110 207.001C109.975 194.03 112.569 181.188 117.625 169.243C120.065 163.475 123.061 157.957 126.569 152.767C130.05 147.615 134.015 142.807 138.41 138.408C142.808 134.014 147.615 130.048 152.766 126.566C157.957 123.062 163.474 120.067 169.24 117.623C181.187 112.569 194.029 109.977 207 110.001C219.971 109.976 232.813 112.568 244.758 117.622C250.527 120.062 256.045 123.057 261.235 126.565C266.387 130.047 271.195 134.012 275.594 138.407C279.989 142.806 283.954 147.614 287.436 152.766C290.943 157.956 293.938 163.474 296.379 169.242C301.434 181.188 304.027 194.03 304 207.001C304.025 219.97 301.431 232.811 296.375 244.754C293.934 250.522 290.939 256.04 287.432 261.229C283.951 266.382 279.986 271.19 275.59 275.588C271.192 279.984 266.383 283.95 261.231 287.431C256.04 290.938 250.523 293.933 244.754 296.373C232.811 301.431 219.97 304.025 207 304.001ZM207 157.001C193.744 157.016 181.034 162.288 171.66 171.662C162.287 181.035 157.015 193.745 157 207.001C157.015 220.258 162.287 232.967 171.66 242.341C181.034 251.714 193.744 256.987 207 257.001C220.256 256.986 232.965 251.713 242.338 242.34C251.712 232.966 256.985 220.257 257 207.001C256.985 193.745 251.712 181.036 242.338 171.662C232.965 162.289 220.256 157.016 207 157.001ZM284.5 223.501C283.174 223.501 281.903 224.028 280.965 224.966C280.027 225.903 279.5 227.175 279.5 228.501C279.502 229.827 280.03 231.098 280.967 232.035C281.904 232.972 283.175 233.5 284.5 233.501C285.826 233.499 287.096 232.972 288.033 232.034C288.971 231.097 289.498 229.827 289.5 228.501C289.499 227.176 288.971 225.905 288.033 224.967C287.096 224.03 285.826 223.503 284.5 223.501Z" fill="#443F3B"/>
<path d="M207 256C234.062 256 256 234.062 256 207C256 179.938 234.062 158 207 158C179.938 158 158 179.938 158 207C158 234.062 179.938 256 207 256Z" stroke="#F1F2EF" stroke-width="8"/>
<path d="M245.02 413.998H169.979C169.86 412.629 169.232 411.355 168.217 410.428C167.202 409.502 165.874 408.991 164.5 408.998C163.126 408.991 161.798 409.502 160.783 410.428C159.768 411.355 159.14 412.629 159.021 413.998H2C1.46957 413.998 0.96101 413.787 0.585938 413.412C0.210865 413.037 0 412.528 0 411.998V1.99805C0 1.46761 0.210865 0.959057 0.585938 0.583984C0.96101 0.208912 1.46957 -0.00195312 2 -0.00195312H412C412.53 -0.00195312 413.039 0.208912 413.414 0.583984C413.789 0.959057 414 1.46761 414 1.99805V93.998H402V113.998H414V411.998C414 412.528 413.789 413.037 413.414 413.412C413.039 413.787 412.53 413.998 412 413.998H255.977C255.858 412.629 255.23 411.355 254.215 410.428C253.2 409.502 251.872 408.991 250.498 408.998C249.124 408.991 247.796 409.502 246.781 410.428C245.766 411.355 245.138 412.629 245.02 413.998ZM207 296.998C201.963 297.004 197.132 299.007 193.57 302.569C190.008 306.131 188.006 310.961 188 315.998V384.998C188.006 390.035 190.01 394.864 193.572 398.426C197.134 401.988 201.963 403.992 207 403.998C212.037 403.992 216.866 401.988 220.428 398.426C223.99 394.864 225.994 390.035 226 384.998V315.998C225.994 310.961 223.992 306.131 220.43 302.569C216.868 299.007 212.037 297.004 207 296.998ZM207.5 145.998C191.195 146.016 175.563 152.502 164.033 164.031C152.504 175.561 146.018 191.193 146 207.498C146.018 223.803 152.504 239.435 164.033 250.965C175.563 262.494 191.195 268.98 207.5 268.998C223.805 268.979 239.437 262.494 250.967 250.964C262.496 239.435 268.981 223.803 269 207.498C268.981 191.193 262.496 175.561 250.967 164.032C239.437 152.502 223.805 146.017 207.5 145.998ZM284.5 218.998C281.981 219.001 279.566 220.003 277.785 221.784C276.004 223.565 275.003 225.979 275 228.498C275.003 231.017 276.004 233.431 277.785 235.212C279.566 236.993 281.981 237.995 284.5 237.998C287.019 237.995 289.434 236.993 291.215 235.212C292.996 233.431 293.997 231.017 294 228.498C293.997 225.979 292.996 223.565 291.215 221.784C289.434 220.003 287.019 219.001 284.5 218.998Z" fill="#FF833D"/>
</g>
<defs>
<clipPath id="clip0_43_2">
<rect width="414.002" height="413.998" fill="white"/>
</clipPath>
</defs>
</svg>
