<svg width="512" height="512" viewBox="0 0 512 512" fill="none" xmlns="http://www.w3.org/2000/svg">
<path d="M512 343.884C512 345.656 511.686 347.301 511.059 348.82C510.432 350.338 509.554 351.667 508.426 352.807C507.36 353.882 506.074 354.737 504.569 355.369C503.064 356.002 501.434 356.319 499.678 356.319H411.448C409.191 356.319 406.745 356.066 404.111 355.559C401.54 354.99 398.969 354.135 396.398 352.996C393.89 351.857 391.476 350.402 389.156 348.63C386.835 346.795 384.766 344.611 382.948 342.08C381.192 339.485 379.781 336.511 378.715 333.157C377.649 329.74 377.116 325.911 377.116 321.671V254.844C377.116 252.566 377.367 250.13 377.868 247.535C378.433 244.877 379.279 242.283 380.408 239.751C381.537 237.157 383.01 234.689 384.829 232.347C386.647 230.006 388.811 227.949 391.319 226.177C393.89 224.342 396.837 222.886 400.161 221.811C403.484 220.735 407.247 220.197 411.448 220.197H510.871V244.877H411.448C408.25 244.877 405.804 245.732 404.111 247.44C402.418 249.149 401.572 251.68 401.572 255.034V321.671C401.572 324.835 402.418 327.303 404.111 329.075C405.867 330.784 408.313 331.638 411.448 331.638H487.544V300.693H422.453V275.823H499.678C501.434 275.823 503.064 276.171 504.569 276.867C506.074 277.5 507.36 278.386 508.426 279.525C509.554 280.664 510.432 281.993 511.059 283.512C511.686 284.967 512 286.549 512 288.258V343.884Z" fill="black"/>
<path d="M359.791 244.877H305.867V356.319H281.4V244.877H227.382V220.197H359.791V244.877Z" fill="black"/>
<path d="M210.36 277.965C210.36 289.763 208.334 300.615 204.281 310.522C200.228 320.429 194.599 328.985 187.394 336.19C180.189 343.395 171.633 349.024 161.727 353.076C151.91 357.039 141.193 359.021 129.575 359.021H82.0219C70.404 359.021 59.6416 357.039 49.7348 353.076C39.828 349.024 31.2721 343.395 24.0672 336.19C16.8622 328.985 11.1883 320.429 7.04548 310.522C2.9927 300.615 0.966309 289.763 0.966309 277.965V240.949C0.966309 229.241 2.9927 218.434 7.04548 208.527C11.1883 198.53 16.8622 189.974 24.0672 182.86C31.2721 175.655 39.828 170.026 49.7348 165.973C59.6416 161.92 70.404 159.894 82.0219 159.894H129.575C141.193 159.894 151.91 161.92 161.727 165.973C171.633 170.026 180.189 175.655 187.394 182.86C194.599 189.974 200.228 198.53 204.281 208.527C208.334 218.434 210.36 229.241 210.36 240.949V277.965ZM175.236 240.949C175.236 234.015 174.11 227.755 171.859 222.172C169.697 216.498 166.59 211.679 162.537 207.717C158.575 203.664 153.756 200.557 148.082 198.395C142.498 196.144 136.329 195.018 129.575 195.018H82.0219C75.1773 195.018 68.918 196.144 63.2441 198.395C57.6602 200.557 52.8419 203.664 48.7891 207.717C44.7364 211.679 41.5842 216.498 39.3326 222.172C37.1712 227.755 36.0904 234.015 36.0904 240.949V277.965C36.0904 284.9 37.1712 291.204 39.3326 296.878C41.5842 302.462 44.7364 307.28 48.7891 311.333C52.8419 315.295 57.6602 318.403 63.2441 320.654C68.918 322.816 75.1773 323.896 82.0219 323.896H129.304C136.149 323.896 142.363 322.816 147.947 320.654C153.621 318.403 158.484 315.295 162.537 311.333C166.59 307.28 169.697 302.462 171.859 296.878C174.11 291.204 175.236 284.9 175.236 277.965V240.949Z" fill="black"/>
</svg>
